<svg width="301" height="145" viewBox="0 0 301 145" fill="none" xmlns="http://www.w3.org/2000/svg">
<g clip-path="url(#clip0_26_628)">
<path d="M99.1252 145C90.0428 145 80.9739 144.844 71.9186 144.531C58.9797 144.085 45.6002 143.623 33.1645 136.995C24.4652 132.359 16.7606 124.921 10.8839 115.484C6.95595 109.088 4.07584 102.149 2.34469 94.9106C-0.884584 81.7326 -0.774591 68.0021 2.66542 54.8733C3.87093 50.372 5.53281 45.9952 7.6272 41.8055C16.6961 23.7588 33.237 11.6444 53.0089 8.56908C53.1722 8.54871 53.3373 8.54532 53.5014 8.55897C53.5903 8.56355 53.6789 8.56844 53.7693 8.56481L53.8856 8.52928C54.1838 8.42968 54.4902 8.35413 54.8014 8.30343C85.295 3.94102 117.531 12.7677 148.022 33.8286C171.598 50.115 202.843 58.885 243.542 60.6396L244.119 60.6687C255.449 61.2941 266.408 65.7827 275.813 73.6499C285.097 81.4148 292.067 91.7746 295.97 103.61C296.45 105.053 296.89 106.555 297.277 108.074C297.638 109.486 297.613 110.963 297.203 112.363C296.794 113.762 296.015 115.036 294.941 116.06V116.063L294.84 116.163C294.596 116.396 294.339 116.62 294.077 116.828L293.768 117.072C291.167 119.131 289.113 120.758 286.654 122.021C285.014 122.858 283.27 123.49 281.464 123.904C271.546 126.227 261.475 128.382 251.529 130.307C232.213 134.05 212.389 137.137 192.607 139.483C161.593 143.158 130.374 145 99.1252 145ZM53.2702 9.19814C53.2094 9.1976 53.1487 9.20156 53.0886 9.20999C33.5015 12.2566 17.1172 24.252 8.13821 42.1202C6.06448 46.2682 4.41904 50.6017 3.22552 55.0584C-0.183139 68.0708 -0.291764 81.6793 2.90878 94.7404C4.62299 101.909 7.47518 108.782 11.3652 115.117C17.1844 124.461 24.8102 131.825 33.4183 136.412C45.7424 142.981 59.0588 143.44 71.9369 143.884C112.215 145.267 152.544 143.581 192.544 138.84C212.314 136.495 232.125 133.41 251.428 129.67C261.367 127.746 271.432 125.593 281.343 123.271C283.106 122.868 284.808 122.251 286.408 121.434C288.817 120.196 290.852 118.586 293.428 116.546L293.736 116.302C293.962 116.123 294.184 115.932 294.395 115.733L294.456 115.671C296.573 113.621 297.396 110.916 296.715 108.25V108.249C296.331 106.746 295.896 105.261 295.421 103.833C287.447 79.6554 266.819 62.5693 244.091 61.315L243.517 61.2859C224.926 60.4842 208.658 58.2636 193.784 54.4965C176.029 49.9997 160.528 43.2305 147.713 34.3772C117.338 13.3971 85.2363 4.60325 54.8759 8.94496C54.5923 8.99198 54.3133 9.0615 54.0416 9.15281L53.8319 9.20919C53.7128 9.21432 53.5935 9.21294 53.4745 9.20509C53.4045 9.20162 53.3365 9.19814 53.2702 9.19814Z" fill="#F0F0F0"/>
<path d="M94.0202 47.2427C93.1794 46.4675 92.3194 42.1446 91.2459 41.7057C92.0483 43.4099 91.4658 43.861 91.4615 45.7313C91.4716 46.7933 91.3425 47.8523 91.0773 48.8833H72.8931V35.2458C72.893 34.0204 73.1442 32.8071 73.6321 31.675C74.1201 30.5429 74.8353 29.5142 75.737 28.6477C76.6386 27.7813 77.7091 27.094 78.8871 26.6251C80.0652 26.1561 81.3279 25.9148 82.603 25.9149C83.0897 25.924 83.5733 25.992 84.0423 26.1173C85.6053 26.5228 87.0298 27.3162 88.173 28.4178C89.3162 29.5194 90.1379 30.8905 90.5556 32.3936C91.9419 37.2628 94.1466 45.368 94.0202 47.2427Z" fill="#2F2E41"/>
<path d="M73.9601 64.0195L73.9691 53.3898L67.4669 53.9482L69.7616 60.6523L68.6877 77.5033C68.1668 77.6156 67.6911 77.8711 67.3188 78.2387C66.9464 78.6063 66.6934 79.0701 66.5906 79.5735C66.4878 80.0769 66.5396 80.5982 66.7397 81.0737C66.9398 81.5493 67.2796 81.9587 67.7177 82.2519C68.1558 82.5451 68.6731 82.7095 69.2067 82.725C69.7403 82.7405 70.2671 82.6065 70.7228 82.3393C71.1785 82.0722 71.5435 81.6833 71.7732 81.2202C72.0029 80.7572 72.0875 80.2399 72.0165 79.7314L73.9601 64.0195Z" fill="#FFB6B6"/>
<path d="M86.756 139.979L89.3828 139.979L90.6326 130.242H86.7554L86.756 139.979Z" fill="#FFB6B6"/>
<path d="M85.8664 138.734L90.019 138.496V140.205L93.967 142.826C94.162 142.955 94.3088 143.141 94.3861 143.356C94.4634 143.571 94.467 143.805 94.3965 144.022C94.326 144.24 94.185 144.43 93.9941 144.565C93.8032 144.7 93.5724 144.772 93.3355 144.772H88.3916L87.5395 143.081L87.2068 144.772H85.3428L85.8664 138.734Z" fill="#2F2E41"/>
<path d="M71.5667 139.979L74.1939 139.979L75.4433 130.242H71.5664L71.5667 139.979Z" fill="#FFB6B6"/>
<path d="M70.6774 138.734L74.83 138.496V140.205L78.778 142.826C78.973 142.955 79.1199 143.141 79.1972 143.356C79.2744 143.571 79.2781 143.805 79.2076 144.022C79.137 144.24 78.996 144.43 78.8052 144.565C78.6143 144.7 78.3835 144.772 78.1465 144.772H73.2027L72.3505 143.081L72.0178 144.772H70.1538L70.6774 138.734Z" fill="#2F2E41"/>
<path d="M84.417 41.9108L78.9752 42.0133L75.1338 45.9097L72.0542 46.3438C70.6611 46.5401 69.3804 47.19 68.4261 48.1848C67.4717 49.1796 66.9016 50.4591 66.811 51.8093L67.3445 54.6255H70.5456L72.3974 65.074C71.6774 66.8372 71.6284 68.229 73.1065 68.7757L77.6947 77.0813L91.246 71.2366C91.9332 70.1012 92.1534 68.9608 91.451 67.8519L92.4197 51.8569H95.6771C95.6771 48.8654 94.6241 46.3434 91.5303 46.0105C90.3018 45.8827 89.0672 45.8149 87.8315 45.8072L84.417 41.9108Z" fill="#E6E6E6"/>
<path d="M91.2459 71.2366C91.2459 71.2366 78.0147 73.4924 73.1064 68.7757C73.1064 68.7757 72.6081 69.5886 71.8572 70.9369C71.6413 71.3246 71.2242 71.5873 70.9723 72.0569C70.7434 72.4837 70.1547 73.0085 69.9053 73.4926C69.7047 73.882 70.0265 74.391 69.8178 74.8117C67.3041 79.8782 64.3674 87.025 64.997 91.7442C65.403 94.7875 66.2416 101.869 67.1248 109.475C67.1938 110.069 66.6349 110.832 66.7042 111.431C66.7696 111.996 67.4633 112.397 67.5287 112.963C67.5721 113.339 67.0877 113.722 67.131 114.097C67.1786 114.509 67.7538 114.913 67.8011 115.323C69.0109 125.826 70.1187 135.63 70.1187 135.63H76.3075L77.4752 113.237L76.5209 105.074L78.7616 88.5655L81.856 104.254L82.2541 113.083L85.5243 136.041H91.2459V113.816L91.6727 112.662L91.2459 111.181L91.6727 109.586L91.2459 107.848V71.2366Z" fill="#2F2E41"/>
<path d="M86.0873 38.8782C85.2443 39.9543 84.0451 40.7224 82.6872 41.056C81.3293 41.3897 79.8936 41.269 78.6166 40.7138C77.3396 40.1586 76.2974 39.202 75.6617 38.0016C75.026 36.8012 74.8346 35.4286 75.1192 34.1097C75.4037 32.7909 76.1472 31.6045 77.2271 30.7459C78.307 29.8873 79.659 29.4077 81.0605 29.3862C82.4619 29.3646 83.8292 29.8024 84.9372 30.6273C86.0451 31.4523 86.8277 32.6152 87.156 33.9246C87.1738 33.9957 87.1887 34.0663 87.2033 34.1397C87.3766 34.9604 87.3668 35.8072 87.1745 36.624C86.9821 37.4409 86.6115 38.2092 86.0873 38.8782Z" fill="#FFB6B6"/>
<path d="M84.8008 35.496C84.67 34.8649 84.339 34.2882 83.8533 33.8451C83.9013 34.4499 83.8139 35.0576 83.5972 35.6272C81.9749 35.7653 80.3453 35.4551 78.9002 34.7331C77.8118 34.0236 76.4268 34.0851 74.8135 34.7331C74.8134 33.979 74.9679 33.2323 75.2681 32.5356C75.5684 31.8389 76.0085 31.2058 76.5634 30.6726C77.1183 30.1394 77.777 29.7164 78.502 29.4279C79.2271 29.1394 80.0041 28.9909 80.7888 28.991H81.8559C83.4405 28.9913 84.9602 29.5963 86.0808 30.6731C87.2013 31.7499 87.8309 33.2103 87.8312 34.7331C86.8464 35.0725 85.8323 35.3278 84.8008 35.496Z" fill="#2F2E41"/>
<path d="M38.119 108.682C47.5997 108.682 55.2854 101.296 55.2854 92.1852C55.2854 83.0746 47.5997 75.6889 38.119 75.6889C28.6383 75.6889 20.9526 83.0746 20.9526 92.1852C20.9526 101.296 28.6383 108.682 38.119 108.682Z" fill="#F0F0F0"/>
<path d="M147.513 32.9926C156.993 32.9926 164.679 25.607 164.679 16.4963C164.679 7.38565 156.993 0 147.513 0C138.032 0 130.346 7.38565 130.346 16.4963C130.346 25.607 138.032 32.9926 147.513 32.9926Z" fill="#F0F0F0"/>
<path d="M283.834 111.269C293.315 111.269 301 103.884 301 94.7729C301 85.6622 293.315 78.2766 283.834 78.2766C274.353 78.2766 266.667 85.6622 266.667 94.7729C266.667 103.884 274.353 111.269 283.834 111.269Z" fill="#F0F0F0"/>
<path d="M178.479 18.2953V55.7018C178.479 56.4788 178.16 57.2244 177.592 57.7768C177.023 58.3291 176.251 58.6434 175.442 58.6515C175.431 58.6526 175.42 58.6531 175.408 58.6529H170.878C167.253 58.6529 163.776 57.2691 161.213 54.8059C158.65 52.3427 157.21 49.0019 157.21 45.5184V18.2953C157.21 17.5126 157.534 16.762 158.109 16.2086C158.685 15.6552 159.466 15.3443 160.281 15.3443H162.117C161.266 17.7284 172.809 18.7321 173.442 15.3443H175.408C176.223 15.3443 177.004 15.6552 177.58 16.2086C178.156 16.762 178.479 17.5126 178.479 18.2953Z" fill="#F13B97"/>
<path d="M165.035 12.5471C165.035 12.4446 165.077 12.3463 165.153 12.2738C165.228 12.2013 165.33 12.1605 165.437 12.1604H168.174C168.28 12.1607 168.382 12.2016 168.458 12.2741C168.533 12.3466 168.575 12.4448 168.575 12.5471C168.575 12.6495 168.533 12.7477 168.458 12.8202C168.382 12.8927 168.28 12.9336 168.174 12.9339H165.437C165.33 12.9338 165.228 12.893 165.153 12.8205C165.077 12.748 165.035 12.6497 165.035 12.5471Z" fill="#3F3D56"/>
<path d="M176.348 63.3976H159.042C157.699 63.3961 156.412 62.8829 155.463 61.9706C154.513 61.0582 153.979 59.8212 153.978 58.5309V32.3822C153.883 32.3166 153.805 32.2302 153.752 32.1301C153.698 32.0301 153.671 31.9192 153.671 31.8068V29.177C153.671 29.0646 153.698 28.9538 153.752 28.8537C153.805 28.7537 153.883 28.6673 153.978 28.6018V27.896C153.883 27.8304 153.805 27.744 153.752 27.644C153.698 27.544 153.671 27.4332 153.671 27.3208V24.6908C153.671 24.5784 153.698 24.4675 153.752 24.3675C153.805 24.2675 153.883 24.1811 153.978 24.1156V22.8399C153.86 22.7793 153.762 22.6893 153.694 22.5793C153.626 22.4694 153.59 22.3437 153.59 22.2157V19.5859C153.59 19.4579 153.626 19.3322 153.694 19.2222C153.762 19.1123 153.86 19.0222 153.978 18.9616V15.4661C153.979 14.1758 154.513 12.9388 155.463 12.0264C156.412 11.114 157.699 10.6008 159.042 10.5994H176.348C177.691 10.6008 178.978 11.1141 179.928 12.0264C180.877 12.9388 181.411 14.1758 181.413 15.4661V23.0855C181.504 23.1403 181.579 23.2165 181.631 23.3069C181.684 23.3974 181.711 23.499 181.711 23.6024V28.617C181.711 28.7204 181.684 28.822 181.631 28.9125C181.579 29.0029 181.504 29.0792 181.413 29.134V58.5309C181.411 59.8211 180.877 61.0582 179.928 61.9705C178.978 62.8829 177.691 63.3961 176.348 63.3976ZM159.042 11.2463C157.878 11.2476 156.762 11.6925 155.938 12.4836C155.115 13.2747 154.652 14.3473 154.651 15.4661V19.5118L154.327 19.5238C154.31 19.5244 154.294 19.5312 154.282 19.5427C154.271 19.5543 154.264 19.5697 154.264 19.5859V22.2157C154.264 22.2319 154.271 22.2473 154.282 22.2588C154.294 22.2704 154.31 22.2772 154.327 22.2778L154.651 22.2896V24.5698L154.395 24.6304C154.38 24.6337 154.368 24.6414 154.359 24.6523C154.35 24.6632 154.344 24.6767 154.344 24.6908V27.3207C154.344 27.3348 154.35 27.3483 154.359 27.3592C154.368 27.3701 154.38 27.3778 154.395 27.3811L154.651 27.4417V29.056L154.395 29.1166C154.38 29.1199 154.368 29.1276 154.359 29.1385C154.35 29.1495 154.344 29.163 154.344 29.177V31.8068C154.344 31.8209 154.349 31.8344 154.359 31.8453C154.368 31.8563 154.38 31.864 154.395 31.8673L154.651 31.9279V58.5309C154.652 59.6497 155.115 60.7222 155.938 61.5133C156.762 62.3044 157.878 62.7494 159.042 62.7507H176.348C177.513 62.7494 178.629 62.3044 179.452 61.5133C180.275 60.7222 180.738 59.6496 180.74 58.5309V28.5801H181.038V23.6394H180.74V15.4661C180.738 14.3473 180.275 13.2747 179.452 12.4837C178.629 11.6926 177.513 11.2476 176.348 11.2463L159.042 11.2463Z" fill="#3F3D56"/>
<path d="M169.703 12.9339C169.925 12.9339 170.106 12.7607 170.106 12.5471C170.106 12.3335 169.925 12.1604 169.703 12.1604C169.481 12.1604 169.301 12.3335 169.301 12.5471C169.301 12.7607 169.481 12.9339 169.703 12.9339Z" fill="#3F3D56"/>
<path d="M82.1564 87.4637H37.1243C36.4848 87.4621 35.8719 87.2173 35.4197 86.7828C34.9675 86.3483 34.7127 85.7594 34.7109 85.1448V64.059C34.7126 63.4445 34.9673 62.8555 35.4195 62.421C35.8717 61.9864 36.4845 61.7415 37.124 61.7398H82.1561C82.7956 61.7414 83.4084 61.9862 83.8606 62.4207C84.3129 62.8553 84.5677 63.4442 84.5694 64.0587V85.1445C84.5678 85.7591 84.313 86.348 83.8609 86.7826C83.4087 87.2171 82.7959 87.462 82.1564 87.4637Z" fill="white"/>
<path d="M82.1564 87.4637H37.1243C36.4848 87.4621 35.8719 87.2173 35.4197 86.7828C34.9675 86.3483 34.7127 85.7594 34.7109 85.1448V64.059C34.7126 63.4445 34.9673 62.8555 35.4195 62.421C35.8717 61.9864 36.4845 61.7415 37.124 61.7398H82.1561C82.7956 61.7414 83.4084 61.9862 83.8606 62.4207C84.3129 62.8553 84.5677 63.4442 84.5694 64.0587V85.1445C84.5678 85.7591 84.313 86.348 83.8609 86.7826C83.4087 87.2171 82.7959 87.462 82.1564 87.4637ZM37.1243 62.3868C36.6631 62.3881 36.2213 62.5647 35.8952 62.8781C35.5691 63.1915 35.3854 63.6162 35.3841 64.0593V85.1445C35.3855 85.5877 35.5693 86.0123 35.8954 86.3257C36.2215 86.639 36.6635 86.8156 37.1246 86.8168H82.1557C82.617 86.8155 83.0589 86.6389 83.3851 86.3255C83.7112 86.0121 83.895 85.5874 83.8962 85.1442V64.059C83.8949 63.6159 83.7111 63.1912 83.3849 62.8779C83.0588 62.5646 82.6169 62.388 82.1557 62.3868L37.1243 62.3868Z" fill="#3F3D56"/>
<path d="M62.0538 84.3475C53.1725 84.3475 43.9117 84.266 40.4564 84.2131C40.0018 84.2041 39.5688 84.0247 39.25 83.7131C38.9312 83.4016 38.7518 82.9826 38.75 82.5456V65.0913C38.7502 64.9349 38.8148 64.7848 38.9298 64.6741C39.0448 64.5633 39.2008 64.5008 39.3636 64.5002H79.9152C80.078 64.5004 80.2341 64.5625 80.3493 64.673C80.4646 64.7835 80.5296 64.9333 80.5302 65.0898V76.9322C80.5226 78.8653 79.7269 80.7186 78.3138 82.0944C76.9007 83.4702 74.9827 84.259 72.9713 84.2915C69.751 84.3318 65.9377 84.3475 62.0538 84.3475Z" fill="#F13B97"/>
<path d="M77.5082 75.8442H40.8666C40.5598 75.8434 40.2607 75.7518 40.0099 75.5819C39.7592 75.412 39.5689 75.1721 39.465 74.8947L35.3177 63.7139C35.2378 63.4983 35.2129 63.2674 35.2451 63.0405C35.2773 62.8137 35.3657 62.5977 35.5028 62.4105C35.6399 62.2233 35.8217 62.0705 36.0331 61.9648C36.2444 61.8592 36.479 61.8038 36.7172 61.8033L82.5185 61.7421C82.7362 61.7418 82.9513 61.7875 83.1487 61.8759C83.3461 61.9642 83.5208 62.0931 83.6608 62.2534C83.8007 62.4137 83.9023 62.6015 83.9584 62.8037C84.0146 63.0058 84.024 63.2173 83.9858 63.4233L84.0212 63.4377L83.8897 63.7326L83.8884 63.7355L78.8748 74.9774C78.7606 75.2348 78.5701 75.4542 78.3271 75.6083C78.0841 75.7624 77.7993 75.8444 77.5082 75.8442ZM82.5206 62.389L36.7185 62.4503C36.588 62.4505 36.4595 62.4808 36.3437 62.5386C36.228 62.5965 36.1283 62.6802 36.0532 62.7827C35.9781 62.8853 35.9297 63.0036 35.912 63.1279C35.8944 63.2521 35.908 63.3786 35.9518 63.4967L40.0989 74.677C40.1559 74.829 40.2602 74.9605 40.3977 75.0536C40.5351 75.1466 40.699 75.1968 40.8671 75.1973H77.5082C77.6675 75.1974 77.8234 75.1525 77.9563 75.0681C78.0893 74.9838 78.1935 74.8637 78.256 74.7228L83.2697 63.4806C83.3229 63.3615 83.3444 63.2316 83.3324 63.1025C83.3204 62.9734 83.2753 62.8492 83.201 62.741C83.1268 62.6328 83.0258 62.544 82.907 62.4826C82.7882 62.4211 82.6555 62.389 82.5206 62.389Z" fill="#3F3D56"/>
<path d="M59.5718 78.278C61.1564 78.278 62.4409 77.0435 62.4409 75.5208C62.4409 73.9981 61.1564 72.7636 59.5718 72.7636C57.9872 72.7636 56.7026 73.9981 56.7026 75.5208C56.7026 77.0435 57.9872 78.278 59.5718 78.278Z" fill="white"/>
<path d="M167.956 54.3421C169.54 54.3421 170.825 53.1077 170.825 51.585C170.825 50.0622 169.54 48.8278 167.956 48.8278C166.371 48.8278 165.086 50.0622 165.086 51.585C165.086 53.1077 166.371 54.3421 167.956 54.3421Z" fill="white"/>
<path d="M276.472 91.5772L268.808 84.3058C268.435 83.9491 267.992 83.6666 267.505 83.4745C267.018 83.2825 266.497 83.1847 265.97 83.1867H265.943C265.413 83.1882 264.888 83.2907 264.4 83.4883C263.911 83.686 263.468 83.9749 263.096 84.3382C261.382 86.0048 260.407 88.2449 260.377 90.5877C260.346 92.9306 261.262 95.1936 262.931 96.9012C263.012 96.9853 263.096 97.0662 263.18 97.1471C263.646 97.5923 264.161 97.9881 264.715 98.3277C266.23 99.2685 267.997 99.7662 269.801 99.7606H269.858C271.096 99.7565 272.321 99.5166 273.462 99.0547C274.603 98.5928 275.638 97.918 276.506 97.0695C277.258 96.3362 277.677 95.3462 277.67 94.3166C277.664 93.287 277.233 92.3019 276.472 91.5772ZM276.028 96.6134C274.605 97.9909 272.731 98.855 270.723 99.0601C268.714 99.2651 266.693 98.7985 265.001 97.739C264.517 97.4312 264.065 97.0791 263.651 96.6878C262 95.1204 261.064 92.9869 261.049 90.7564C261.035 88.526 261.943 86.3813 263.574 84.7943C263.884 84.4907 264.254 84.2494 264.662 84.0845C265.07 83.9195 265.508 83.8343 265.95 83.8336H265.97C266.409 83.8321 266.843 83.9136 267.248 84.0735C267.654 84.2333 268.022 84.4683 268.333 84.7651L275.998 92.0397C276.632 92.6427 276.992 93.463 276.997 94.3205C277.003 95.178 276.654 96.0027 276.028 96.6134Z" fill="#3F3D56"/>
<path d="M251.325 67.7125L243.661 60.4379C242.907 59.7187 241.886 59.3162 240.823 59.3188H240.8C240.269 59.3208 239.744 59.4239 239.254 59.6221C238.765 59.8203 238.321 60.1097 237.949 60.4735C236.532 61.8562 235.614 63.6385 235.328 65.5594C235.042 67.4803 235.404 69.4387 236.36 71.1476L236.364 71.1508C236.758 71.8498 237.248 72.4949 237.821 73.0689C237.885 73.1401 237.959 73.2112 238.033 73.2824C239.793 74.9613 242.174 75.9011 244.654 75.8959H244.714C245.953 75.891 247.178 75.6503 248.319 75.1878C249.46 74.7254 250.494 74.0503 251.362 73.2015C251.735 72.8388 252.03 72.4091 252.229 71.9369C252.429 71.4647 252.53 70.9593 252.527 70.4496C252.523 69.9399 252.416 69.4358 252.209 68.9662C252.003 68.4965 251.703 68.0705 251.325 67.7125ZM250.881 72.7487C250.075 73.5363 249.115 74.1628 248.056 74.5919C246.997 75.021 245.86 75.2444 244.711 75.249H244.654C242.928 75.2484 241.241 74.7573 239.804 73.8376C238.368 72.9179 237.247 71.6107 236.582 70.0802C235.916 68.5498 235.737 66.8645 236.066 65.2363C236.395 63.6081 237.217 62.1097 238.43 60.9296C239.058 60.3199 239.911 59.9744 240.804 59.969C241.696 59.9635 242.554 60.2985 243.19 60.9005L250.854 68.1718C251.488 68.7759 251.847 69.5969 251.852 70.4549C251.857 71.3129 251.508 72.1378 250.881 72.7487Z" fill="#3F3D56"/>
<path d="M276.962 93.8632L268.512 85.8436C267.958 85.3189 267.21 85.0268 266.432 85.0314C265.654 85.0361 264.91 85.337 264.363 85.8683C263.678 86.5329 263.137 87.3207 262.769 88.1866C262.402 89.0525 262.215 89.9795 262.221 90.9146C262.226 91.8498 262.424 92.7747 262.801 93.6365C263.179 94.4984 263.73 95.2802 264.422 95.9374C265.115 96.5945 265.935 97.1141 266.836 97.4663C267.738 97.8186 268.703 97.9966 269.676 97.9903C270.649 97.984 271.611 97.7934 272.508 97.4295C273.404 97.0655 274.217 96.5353 274.9 95.8693L276.962 93.8632Z" fill="#F13B97"/>
<path d="M251.816 69.9972L243.367 61.9776C242.813 61.4529 242.065 61.1608 241.287 61.1654C240.509 61.1701 239.765 61.471 239.217 62.0023C238.533 62.6669 237.991 63.4547 237.624 64.3206C237.256 65.1865 237.07 66.1135 237.075 67.0486C237.081 67.9838 237.278 68.9087 237.656 69.7705C238.034 70.6324 238.584 71.4142 239.277 72.0714C239.969 72.7285 240.789 73.2481 241.691 73.6003C242.592 73.9526 243.557 74.1306 244.53 74.1243C245.503 74.118 246.466 73.9274 247.362 73.5635C248.259 73.1995 249.072 72.6694 249.755 72.0033L251.816 69.9972Z" fill="#F13B97"/>
<path d="M267.677 98.8582L267.475 99.3692C266.526 99.0231 265.606 98.676 264.715 98.3277C248.936 92.1399 241.403 84.8977 236.364 71.1508L236.36 71.1476C236.121 70.5007 235.889 69.8387 235.664 69.1616L236.195 68.9966C236.373 69.6478 236.633 70.2756 236.97 70.8662C237.246 71.6198 237.529 72.3541 237.821 73.0689C242.557 84.6713 249.541 91.3022 262.931 96.9012C263.604 97.1827 264.294 97.4619 265.001 97.739C265.822 98.2529 266.726 98.6312 267.677 98.8582Z" fill="#3F3D56"/>
<path d="M243.521 75.3071L243.047 75.7675L260.529 92.3602L261.003 91.8998L243.521 75.3071Z" fill="#3F3D56"/>
<path d="M95.5138 61.5586L95.5227 50.9289L89.0205 51.4873L91.3153 58.1914L82.9855 70.3256C82.4646 70.4379 81.989 70.6934 81.6166 71.061C81.2443 71.4286 80.9912 71.8924 80.8884 72.3958C80.7856 72.8992 80.8374 73.4205 81.0376 73.896C81.2377 74.3716 81.5775 74.781 82.0155 75.0742C82.4536 75.3674 82.971 75.5318 83.5045 75.5473C84.0381 75.5628 84.5649 75.4288 85.0206 75.1617C85.4763 74.8945 85.8413 74.5056 86.071 74.0426C86.3007 73.5795 86.3853 73.0622 86.3144 72.5537L95.5138 61.5586Z" fill="#FFB6B6"/>
</g>
<defs>
<clipPath id="clip0_26_628">
<rect width="301" height="145" fill="white"/>
</clipPath>
</defs>
</svg>
