<svg width="126" height="121" viewBox="0 0 126 121" fill="none" xmlns="http://www.w3.org/2000/svg">
<g id="crown">
<path id="Vector" d="M103.95 96.8H22.05C20.3175 96.8 18.9 98.1612 18.9 99.825V105.875C18.9 107.539 20.3175 108.9 22.05 108.9H103.95C105.683 108.9 107.1 107.539 107.1 105.875V99.825C107.1 98.1612 105.683 96.8 103.95 96.8ZM116.55 36.3C111.333 36.3 107.1 40.3648 107.1 45.375C107.1 46.7173 107.415 47.9652 107.966 49.1184L93.7125 57.3237C90.6806 59.0631 86.7628 58.08 85.0106 55.1306L68.9653 28.1703C71.0719 26.5066 72.45 24.0109 72.45 21.175C72.45 16.1648 68.2172 12.1 63 12.1C57.7828 12.1 53.55 16.1648 53.55 21.175C53.55 24.0109 54.9281 26.5066 57.0347 28.1703L40.9894 55.1306C39.2372 58.08 35.2997 59.0631 32.2875 57.3237L18.0534 49.1184C18.585 47.9841 18.9197 46.7173 18.9197 45.375C18.9197 40.3648 14.6869 36.3 9.46969 36.3C4.2525 36.3 0 40.3648 0 45.375C0 50.3852 4.23281 54.45 9.45 54.45C9.96187 54.45 10.4738 54.3744 10.9659 54.2987L25.2 90.75H100.8L115.034 54.2987C115.526 54.3744 116.038 54.45 116.55 54.45C121.767 54.45 126 50.3852 126 45.375C126 40.3648 121.767 36.3 116.55 36.3Z" fill="#EED80E"/>
</g>
</svg>
