<svg width="214" height="189" viewBox="0 0 214 189" fill="none" xmlns="http://www.w3.org/2000/svg">
<g clip-path="url(#clip0_26_660)">
<path d="M99.6407 18.2305C96.607 23.4583 102.319 32.267 96.5623 34.0961L97.0366 33.6217C100.512 29.3457 93.2481 20.2954 96.7233 16.0194C97.2633 15.3921 97.7268 14.7029 98.1041 13.9662" fill="#2F2E41"/>
<path d="M128.052 94.9273C128.151 94.4041 128.135 93.8655 128.004 93.3494C127.873 92.8333 127.63 92.3522 127.293 91.94C126.956 91.5279 126.532 91.1947 126.053 90.9639C125.573 90.7331 125.048 90.6103 124.516 90.6042L117.017 68.8108L112.866 74.1032L120.795 94.4667C120.844 95.3619 121.22 96.208 121.851 96.8447C122.482 97.4814 123.324 97.8645 124.219 97.9212C125.113 97.978 125.998 97.7046 126.704 97.1528C127.41 96.601 127.89 95.8091 128.052 94.9273Z" fill="#FFB8B8"/>
<path d="M95.0888 42.3093C95.0888 42.3093 94.8555 34.4204 101.908 38.9396C108.96 43.4589 124.315 85.7934 124.315 85.7934L116.674 89.9289L99.3272 51.188L95.0888 42.3093Z" fill="#F13B97"/>
<path d="M115.895 177.521L112.373 179.026L104.893 166.155L110.091 163.933L115.895 177.521Z" fill="#FFB6B6"/>
<path d="M120.361 182.83L117.836 183.909L116.366 181.717L116.23 184.595L109.532 187.458C109.211 187.596 108.855 187.627 108.515 187.547C108.175 187.467 107.869 187.281 107.643 187.015C107.416 186.749 107.281 186.418 107.256 186.07C107.231 185.721 107.318 185.374 107.504 185.079L111.274 179.097L110.244 176.686L116.014 174.617L120.361 182.83Z" fill="#2F2E41"/>
<path d="M60.6909 181.887L56.8661 181.7L55.7666 166.852L61.4123 167.128L60.6909 181.887Z" fill="#FFB6B6"/>
<path d="M62.3859 188.615L59.6428 188.481L59.2798 185.866L57.8992 188.395L50.6239 188.04C50.2752 188.023 49.941 187.895 49.6702 187.674C49.3994 187.454 49.2062 187.152 49.1187 186.814C49.0312 186.476 49.054 186.119 49.1838 185.795C49.3136 185.47 49.5437 185.196 49.8403 185.012L55.8463 181.282L55.9742 178.663L62.0673 179.327L62.3859 188.615Z" fill="#2F2E41"/>
<path d="M173.392 179.521C173.645 179.53 173.895 179.461 174.108 179.324C174.321 179.186 174.487 178.986 174.582 178.751C174.678 178.516 174.699 178.258 174.643 178.01C174.586 177.763 174.455 177.539 174.268 177.369C174.235 177.245 174.212 177.156 174.18 177.032C174.416 176.414 174.832 175.881 175.373 175.5C175.915 175.12 176.558 174.91 177.219 174.898C177.881 174.885 178.531 175.071 179.087 175.43C179.642 175.79 180.078 176.307 180.338 176.916C181.836 180.333 183.766 183.867 182.859 187.655C188.963 174.387 186.688 157.978 177.373 146.77C174.815 145.392 172.729 142.92 172.164 140.032C173.428 140.447 174.988 139.407 174.029 138.089C173.613 137.586 173.194 137.087 172.779 136.583C177.515 131.441 183.292 139.397 178.091 146.327C179.834 148.471 181.349 150.792 182.61 153.251C182.299 150.63 182.615 147.972 183.531 145.497C184.462 143.189 186.228 141.237 187.782 139.235C189.67 136.795 193.615 137.875 193.902 140.945C192.143 141.542 191.938 144.093 193.959 144.422C193.485 150.143 189.802 155.432 184.685 157.987C186.634 163.298 187.429 168.964 187.018 174.607C187.863 168.009 194.918 166.342 199.836 163.676C200.149 163.471 200.514 163.362 200.888 163.362C201.261 163.361 201.627 163.469 201.94 163.673C202.254 163.877 202.501 164.168 202.652 164.51C202.803 164.851 202.851 165.23 202.791 165.599C202.111 165.883 201.461 166.234 200.851 166.646C200.565 166.842 200.347 167.122 200.227 167.447C200.106 167.773 200.089 168.127 200.178 168.462C200.266 168.798 200.456 169.097 200.722 169.32C200.988 169.543 201.316 169.679 201.661 169.708C199.229 175.899 192.827 180.102 186.212 180.142C185.602 182.911 184.707 185.61 183.54 188.194L173.721 188.288C173.685 188.179 173.652 188.066 173.62 187.958C174.529 188.006 175.441 187.943 176.335 187.77C173.903 184.945 172.03 183.51 173.392 179.521Z" fill="#F2F2F2"/>
<path d="M70.3537 85.3735C70.3537 85.3735 62.5753 106.578 62.4496 108.951C62.3239 111.324 60.1056 141.332 58.2451 143.075C56.3847 144.819 50.6968 171.85 55.1225 173.964C59.5483 176.079 73.5112 172.576 73.5112 172.576L78.3686 140.646L80.0187 116.183C80.0187 116.183 85.0422 173.788 94.1535 173.619C103.265 173.449 114.367 169.979 114.367 169.979L101.615 135.093C101.615 135.093 101.795 93.7922 98.839 85.4621C95.8831 77.1321 70.3537 85.3735 70.3537 85.3735Z" fill="#2F2E41"/>
<path d="M93.4346 30.7414L83.0175 31.6959L81.3393 36.8491C81.3393 36.8491 72.6216 41.6383 74.5519 43.814C76.4823 45.9898 74.1203 60.6524 74.1203 60.6524L74.6538 72.5544C74.6538 72.5544 74.0807 80.8003 72.3657 82.7002C70.6507 84.6001 66.1639 89.2589 69.3342 87.03C80.4502 79.2149 99.8797 85.8092 99.8797 85.8092L97.1041 68.8029C97.1041 68.8029 103.409 40.9595 100.921 38.608C98.4326 36.2565 96.0851 35.9593 96.0851 35.9593L93.4346 30.7414Z" fill="#F13B97"/>
<path d="M38.6975 84.6854C39.2208 84.5879 39.7165 84.3768 40.1494 84.067C40.5824 83.7572 40.9422 83.3562 41.2035 82.8922C41.4648 82.4282 41.6212 81.9126 41.6618 81.3816C41.7023 80.8506 41.6259 80.3172 41.4381 79.8189L59.0077 64.9081L52.5701 62.9641L36.4883 77.7555C35.6724 78.1267 35.021 78.7843 34.6574 79.6039C34.2939 80.4234 34.2435 81.3478 34.5158 82.202C34.7882 83.0562 35.3642 83.7808 36.1349 84.2385C36.9056 84.6962 37.8174 84.8552 38.6975 84.6854Z" fill="#FFB8B8"/>
<path d="M83.3179 45.6828C83.3179 45.6828 86.7796 38.5906 78.4923 39.8021C70.205 41.0136 38.7781 73.2603 38.7781 73.2603L44.0374 80.1775L75.7992 52.0262L83.3179 45.6828Z" fill="#F13B97"/>
<path d="M69.8222 33.6529L36.9646 75.7612C36.3962 76.492 36.1406 77.4184 36.2538 78.3375C36.367 79.2565 36.8398 80.0931 37.5686 80.664C45.199 99.197 68.027 112.94 94.881 125.414C95.6113 125.983 96.5376 126.239 97.4566 126.126C98.3755 126.013 99.2119 125.54 99.7823 124.81L132.64 82.7017C133.209 81.9711 133.465 81.0445 133.352 80.1253C133.238 79.2061 132.765 78.3694 132.036 77.7988C109.5 65.0698 90.131 50.3221 74.7235 33.0487C73.9929 32.4801 73.0667 32.2244 72.148 32.3377C71.2293 32.4509 70.3929 32.9239 69.8222 33.6529Z" fill="#E6E6E6"/>
<path d="M130.334 81.7437L120.332 94.561C114.223 102.344 105.283 107.391 95.4649 108.602C85.6471 109.812 75.7494 107.086 67.9339 101.021L39.9051 79.1355C39.4899 78.8111 39.2202 78.3353 39.1553 77.8123C39.0904 77.2894 39.2355 76.762 39.5587 76.3459L71.3091 35.6566C71.6341 35.2419 72.1103 34.973 72.6332 34.9091C73.1561 34.8451 73.6831 34.9912 74.0984 35.3154C88.2768 53.6299 107.256 67.8821 129.99 78.9565C130.405 79.2809 130.674 79.7566 130.738 80.2791C130.803 80.8016 130.657 81.3283 130.334 81.7437Z" fill="white"/>
<path d="M69.1668 56.64L62.6532 64.9874C62.4804 65.2085 62.2268 65.3519 61.9483 65.3861C61.6698 65.4203 61.3892 65.3425 61.168 65.1698C60.9468 64.9971 60.8032 64.7436 60.7688 64.465C60.7343 64.1865 60.8118 63.9057 60.9843 63.6842L67.4978 55.3369C67.5833 55.2271 67.6896 55.1353 67.8106 55.0666C67.9315 54.998 68.0649 54.9539 68.2029 54.9368C68.341 54.9197 68.481 54.93 68.6151 54.9671C68.7491 55.0042 68.8746 55.0673 68.9842 55.153C69.0939 55.2386 69.1856 55.345 69.2541 55.466C69.3226 55.5871 69.3666 55.7205 69.3836 55.8586C69.4005 55.9968 69.3901 56.1368 69.3529 56.2709C69.3157 56.405 69.2524 56.5304 69.1668 56.64Z" fill="#CCCCCC"/>
<path d="M81.3841 50.4482L67.0798 68.7797C66.9943 68.8893 66.888 68.981 66.767 69.0495C66.6461 69.118 66.5128 69.1621 66.3748 69.1791C66.2369 69.1961 66.0969 69.1857 65.9629 69.1486C65.8289 69.1115 65.7036 69.0484 65.594 68.9628C65.4844 68.8773 65.3927 68.7709 65.3242 68.6499C65.2557 68.5289 65.2117 68.3956 65.1947 68.2576C65.1777 68.1196 65.1881 67.9796 65.2251 67.8456C65.2622 67.7115 65.3253 67.5861 65.4109 67.4765L79.7151 49.1451C79.8006 49.0352 79.9068 48.9432 80.0279 48.8745C80.1489 48.8057 80.2822 48.7615 80.4203 48.7444C80.5584 48.7272 80.6986 48.7375 80.8327 48.7746C80.9668 48.8117 81.0924 48.8748 81.2021 48.9605C81.3118 49.0461 81.4035 49.1526 81.472 49.2738C81.5406 49.3949 81.5845 49.5284 81.6014 49.6666C81.6184 49.8048 81.6079 49.9449 81.5706 50.079C81.5333 50.2132 81.4699 50.3386 81.3841 50.4482Z" fill="#CCCCCC"/>
<path d="M56.9878 81.0248C60.8385 81.0248 63.9602 77.9022 63.9602 74.0502C63.9602 70.1982 60.8385 67.0756 56.9878 67.0756C53.137 67.0756 50.0154 70.1982 50.0154 74.0502C50.0154 77.9022 53.137 81.0248 56.9878 81.0248Z" fill="#F13B97"/>
<path d="M82.1436 64.9362L64.5752 87.4509C64.3918 87.6377 64.1462 87.7504 63.8851 87.7676C63.624 87.7849 63.3657 87.7054 63.1594 87.5443C62.9531 87.3832 62.8133 87.1519 62.7666 86.8943C62.7199 86.6368 62.7696 86.371 62.9062 86.1478L80.4747 63.6331C80.6581 63.4463 80.9037 63.3336 81.1648 63.3163C81.4259 63.2991 81.6842 63.3786 81.8905 63.5397C82.0967 63.7007 82.2366 63.9321 82.2832 64.1896C82.3299 64.4472 82.2802 64.7129 82.1436 64.9362Z" fill="#CCCCCC"/>
<path d="M93.5408 59.7957L69.0195 91.2207C68.8362 91.4075 68.5905 91.5202 68.3294 91.5375C68.0683 91.5547 67.81 91.4752 67.6037 91.3141C67.3974 91.1531 67.2576 90.9217 67.2109 90.6642C67.1643 90.4066 67.214 90.1409 67.3506 89.9176L91.8719 58.4926C92.0552 58.3058 92.3009 58.1931 92.562 58.1758C92.8231 58.1586 93.0814 58.2381 93.2876 58.3992C93.4939 58.5602 93.6337 58.7916 93.6804 59.0491C93.7271 59.3067 93.6774 59.5724 93.5408 59.7957Z" fill="#CCCCCC"/>
<path d="M93.4557 73.7687L75.8872 96.2834C75.7038 96.4701 75.4582 96.5829 75.1971 96.6001C74.936 96.6173 74.6777 96.5378 74.4714 96.3768C74.2651 96.2157 74.1253 95.9844 74.0786 95.7268C74.0319 95.4693 74.0816 95.2035 74.2182 94.9803L91.7867 72.4655C91.9701 72.2788 92.2157 72.1661 92.4768 72.1488C92.7379 72.1316 92.9962 72.2111 93.2025 72.3722C93.4088 72.5332 93.5486 72.7646 93.5953 73.0221C93.6419 73.2797 93.5923 73.5454 93.4557 73.7687Z" fill="#CCCCCC"/>
<path d="M116.702 76.5452L99.1333 99.0599C98.9499 99.2467 98.7043 99.3594 98.4432 99.3767C98.1821 99.3939 97.9238 99.3144 97.7175 99.1533C97.5112 98.9923 97.3714 98.7609 97.3247 98.5034C97.278 98.2458 97.3277 97.9801 97.4643 97.7568L115.033 75.2421C115.216 75.0553 115.462 74.9426 115.723 74.9254C115.984 74.9081 116.242 74.9876 116.449 75.1487C116.655 75.3097 116.795 75.5411 116.841 75.7987C116.888 76.0562 116.838 76.3219 116.702 76.5452Z" fill="#F13B97"/>
<path d="M104.853 68.6282L80.3313 100.053C80.1479 100.24 79.9023 100.353 79.6412 100.37C79.3801 100.387 79.1217 100.308 78.9155 100.147C78.7092 99.9856 78.5694 99.7542 78.5227 99.4966C78.476 99.2391 78.5257 98.9733 78.6623 98.7501L103.184 67.325C103.367 67.1383 103.613 67.0255 103.874 67.0083C104.135 66.9911 104.393 67.0706 104.599 67.2316C104.806 67.3927 104.945 67.6241 104.992 67.8816C105.039 68.1392 104.989 68.4049 104.853 68.6282Z" fill="#CCCCCC"/>
<path d="M75.97 17.4379C75.9693 19.1322 76.3845 20.8007 77.179 22.297C77.9735 23.7933 79.123 25.0716 80.5267 26.0198C81.9303 26.9679 83.5452 27.5569 85.2296 27.735C86.9139 27.9131 88.6162 27.6748 90.187 27.0412C91.7578 26.4075 93.1491 25.3979 94.2388 24.1008C95.3284 22.8037 96.0831 21.2589 96.4366 19.6019C96.7901 17.945 96.7315 16.2266 96.2661 14.5975C95.8007 12.9685 94.9426 11.4786 93.7672 10.2588L93.7175 10.2091C93.6348 10.1221 93.552 10.0352 93.465 9.95239C93.4645 9.9524 93.464 9.9523 93.4635 9.95209C93.4629 9.95188 93.4625 9.95158 93.4621 9.95119C93.4617 9.95081 93.4614 9.95035 93.4612 9.94984C93.461 9.94933 93.4609 9.94879 93.4609 9.94825C93.3533 9.84888 93.2457 9.74952 93.1339 9.6543C91.6388 8.34304 89.7975 7.49062 87.8305 7.19911C85.8636 6.9076 83.8543 7.18935 82.0433 8.01062C80.2323 8.83189 78.6963 10.1579 77.6191 11.8298C76.542 13.5018 75.9694 15.4489 75.97 17.4379Z" fill="#2F2E41"/>
<path d="M88.8665 28.5121C93.6585 28.5121 97.5431 24.6262 97.5431 19.8328C97.5431 15.0393 93.6585 11.1534 88.8665 11.1534C84.0746 11.1534 80.1899 15.0393 80.1899 19.8328C80.1899 24.6262 84.0746 28.5121 88.8665 28.5121Z" fill="#FFB8B8"/>
<path d="M79.6168 22.1458C78.7687 18.3226 79.9946 14.0393 82.6672 11.487C84.0114 10.2287 85.6833 9.37522 87.4907 9.02478C89.2981 8.67434 91.1676 8.84112 92.8845 9.50595C93.1027 9.59407 93.3209 9.6905 93.535 9.79116L93.6346 9.83811V9.85268C93.6539 9.86607 93.6733 9.88013 93.6926 9.89437C93.733 9.93229 93.7823 9.9595 93.8359 9.9735C94.5893 9.95378 95.3383 10.0935 96.0339 10.3836C96.7295 10.6737 97.356 11.1075 97.8723 11.6566C99.2171 13.1163 99.8504 15.4751 99.6562 18.2985L99.6501 18.3868L99.5749 18.4338C98.5568 19.0792 97.5003 19.6619 96.4113 20.1786C92.6022 21.9702 89.1249 22.3022 85.7827 21.1922L85.7214 21.1718L84.3187 18.8202C84.0307 20.4421 84.1845 25.8221 82.532 26.1136L79.6527 22.3079L79.6168 22.1458Z" fill="#2F2E41"/>
<path d="M61.3519 29.7028C64.3045 28.1783 60.5071 22.6454 61.2702 19.4105C62.0333 16.1755 67.5282 15.135 67.8783 11.8297C68.2284 8.52443 69.0519 5.11537 71.2322 2.60729C72.6255 1.00462 74.6785 -0.178522 76.7922 0.0222222C77.5074 0.0901411 78.1995 0.311447 78.8215 0.671067C79.4434 1.03069 79.9806 1.52018 80.3964 2.10619C80.8122 2.6922 81.0968 3.36097 81.231 4.06695C81.3651 4.77293 81.3456 5.49953 81.1736 6.19727C81.7755 5.34427 83.3329 5.52914 83.7184 6.49941C84.0611 7.36197 83.304 8.40677 82.413 8.48309C81.247 9.92342 79.9119 11.452 78.0853 11.7425C77.7943 11.8094 77.4919 11.8092 77.2009 11.7421C76.9099 11.6749 76.6381 11.5424 76.4058 11.3548C75.976 10.942 75.9426 10.1166 76.4524 9.80814C74.1569 10.7203 72.811 13.203 72.4704 15.6502C72.1298 18.0974 72.6011 20.5734 72.9116 23.0246C73.2221 25.4758 73.3559 28.0543 72.3951 30.3305C71.2599 33.0199 68.6464 34.9474 65.7942 35.5656C62.942 36.1837 59.9044 35.5796 57.3227 34.2184C54.741 32.8572 52.5881 30.7792 50.8293 28.4495C53.8589 30.6014 58.0502 31.4076 61.3519 29.7028Z" fill="#2F2E41"/>
<path d="M84.7218 19.2717C81.6881 24.4995 87.4005 33.3082 81.6433 35.1373L82.1176 34.6629C85.5928 30.3869 78.3292 21.3366 81.8044 17.0606C82.3443 16.4333 82.8078 15.7441 83.1852 15.0074" fill="#2F2E41"/>
<path d="M80.022 22.0667C80.022 22.0667 82.5922 12.4697 93.61 10.2546C93.6224 10.2505 93.6638 10.2339 93.7176 10.2091C93.7507 10.1884 93.7921 10.1677 93.8335 10.147C93.7093 10.0766 93.5893 10.0145 93.4651 9.95236L93.4635 9.95207L93.4621 9.95117L93.4613 9.94982L93.461 9.94822C93.3534 9.84886 93.2457 9.74949 93.134 9.65428L92.8194 9.66672C92.8194 9.66672 81.7645 7.91542 80.022 22.0667Z" fill="#FD6584"/>
<path d="M1.83766e-06 188.587C-0.000160329 188.641 0.0104119 188.695 0.0311049 188.745C0.0517978 188.795 0.0822072 188.841 0.120581 188.879C0.158955 188.918 0.204534 188.948 0.254702 188.969C0.304871 188.99 0.358635 189 0.412902 189H248.587C248.697 189 248.802 188.956 248.879 188.879C248.957 188.802 249 188.697 249 188.587C249 188.477 248.957 188.372 248.879 188.295C248.802 188.217 248.697 188.174 248.587 188.174H0.41288C0.358616 188.174 0.304857 188.184 0.254692 188.205C0.204527 188.226 0.158947 188.256 0.120576 188.295C0.0822045 188.333 0.0517973 188.379 0.0311049 188.429C0.0104124 188.479 -0.000158013 188.533 1.83766e-06 188.587Z" fill="#CCCCCC"/>
</g>
<defs>
<clipPath id="clip0_26_660">
<rect width="249" height="189" fill="white"/>
</clipPath>
</defs>
</svg>
