<svg width="238" height="190" viewBox="0 0 238 190" fill="none" xmlns="http://www.w3.org/2000/svg">
<g id="Group">
<g id="Group_2">
<g id="Group_3">
<path id="Vector" d="M56.9009 101.322C58.662 99.836 58.1944 96.3898 55.8565 93.6249C54.8331 92.4146 53.6209 91.5356 52.4336 91.0544L51.0691 89.4811L33.4479 67.4229C33.4479 67.4229 23.6896 45.4797 20.809 43.1091C17.9284 40.7385 14.5393 41.9727 14.5393 41.9727L11.8949 45.2412L28.3731 75.8793L45.2375 92.8352L47.5141 95.2066C47.7906 96.4564 48.4555 97.7973 49.479 99.0075C51.8169 101.772 55.1398 102.809 56.9009 101.322Z" fill="#A0616A"/>
<path id="Vector_2" d="M23.6384 47.1891L28.0543 53.6592L34.3937 63.0328L23.0029 66.9695L12.9457 49.7285L23.6384 47.1891Z" fill="#E6E6E6"/>
</g>
<path id="Vector_3" d="M28.1218 25.1688L24.9236 37.3505L12.7304 34.9541C12.7304 34.9541 17.5278 26.1673 16.3284 22.1733L28.1218 25.1688Z" fill="#A0616A"/>
<g id="Group_4">
<path id="Vector_4" d="M15.2504 183.738L22.593 183.737L26.0859 155.441L15.2489 155.442L15.2504 183.738Z" fill="#A0616A"/>
<path id="Vector_5" d="M40.4072 183.571C40.6358 183.956 40.7564 185.197 40.7564 185.645C40.7564 187.02 39.6407 188.135 38.2643 188.135H15.525C14.5861 188.135 13.8249 187.374 13.8249 186.436V185.49C13.8249 185.49 12.7 182.647 15.0159 179.144C15.0159 179.144 17.8943 181.887 22.1954 177.59L23.4638 175.295L32.645 182.003L37.7339 182.629C38.8473 182.766 39.8345 182.607 40.4072 183.571Z" fill="#2F2E41"/>
</g>
<path id="Vector_6" d="M35.6383 101.85L25.5204 170.636H12.8262L14.5142 131.372L15.4026 110.726L12.8262 100.898C12.8262 100.898 11.6515 98.714 10.662 96.0661C9.54654 93.078 8.66555 89.4957 9.97346 87.797C10.4547 87.1707 11.7058 86.7072 13.4061 86.3621C14.4451 86.15 15.6543 85.9849 16.9597 85.8567C24.4667 85.1146 35.1448 85.5781 35.1448 85.5781L35.4162 94.5277L35.5668 99.5252L35.6383 101.85Z" fill="#2F2E41"/>
<g id="Group_5">
<path id="Vector_7" d="M2.31604 180.373L9.58069 181.44L17.1561 153.953L6.4342 152.379L2.31604 180.373Z" fill="#A0616A"/>
<path id="Vector_8" d="M27.2295 183.865C27.3997 184.278 27.3383 185.524 27.2732 185.967C27.073 187.327 25.8068 188.268 24.4451 188.068L1.94759 184.764C1.01863 184.627 0.376247 183.764 0.512829 182.836L0.650533 181.9C0.650533 181.9 -0.0485152 178.924 2.75293 175.794C2.75293 175.794 5.2013 178.927 10.0823 175.301L11.6714 173.214L19.7782 181.185L24.7219 182.544C25.8035 182.841 26.8032 182.828 27.2295 183.865Z" fill="#2F2E41"/>
</g>
<path id="Vector_9" d="M35.7976 90.3785L34.4098 102.319L26.8417 127.48L14.3832 168.904L1.82539 167.06L13.0959 108.161L11.9799 98.0618C11.9799 98.0618 11.6165 97.0579 11.1999 95.5882C10.373 92.6806 9.33588 87.9455 10.4769 85.5302C10.631 85.2019 10.8244 84.917 11.0636 84.6863C11.5124 84.2515 12.4245 83.9875 13.6466 83.8474C18.7545 83.2707 29.2738 84.9203 33.9547 85.73L35.7976 90.3785Z" fill="#2F2E41"/>
<path id="Vector_10" d="M26.123 33.7559L39.9153 51.1299L37.4395 69.2437L35.3178 87.6752L10.3318 83.8809C10.3318 83.8809 15.7288 70.9003 16.3284 70.3012C16.9281 69.7021 18.4343 71.1818 17.3814 69.2437C16.3284 67.3057 15.1291 67.3057 16.1285 66.3072C17.128 65.3087 8.33289 52.3281 8.33289 45.3386C8.33289 38.3491 12.5305 32.7574 12.5305 32.7574L26.123 33.7559Z" fill="#E6E6E6"/>
<path id="Vector_11" d="M22.905 27.4693C28.0364 27.4693 32.1962 23.3134 32.1962 18.1869C32.1962 13.0603 28.0364 8.90439 22.905 8.90439C17.7736 8.90439 13.6138 13.0603 13.6138 18.1869C13.6138 23.3134 17.7736 27.4693 22.905 27.4693Z" fill="#A0616A"/>
<path id="Vector_12" d="M22.4708 35.9346C22.4708 35.9346 23.8611 24.9441 24.1072 21.7479C24.3533 18.5518 28.869 13.5617 28.869 13.5617L32.0682 16.1432C32.0682 16.1432 34.7751 16.1432 32.9295 12.2095C31.0838 8.27584 27.6386 7.6612 27.6386 7.6612C27.6386 7.6612 27.2695 2.49823 20.8712 3.11287C14.473 3.72751 11.643 8.89048 11.643 8.89048C11.643 8.89048 11.2739 2.3753 7.21343 7.16949C3.153 11.9637 0.815182 13.9305 5.1217 15.5286C9.42821 17.1266 12.6273 15.8974 12.6273 15.8974C12.6273 15.8974 8.44386 16.7579 9.18212 19.7081C9.92038 22.6584 -0.538292 36.0575 4.26039 37.5327C9.05908 39.0078 19.7638 42.5727 20.9943 40.2371C22.2247 37.9015 22.4708 35.9346 22.4708 35.9346Z" fill="#2F2E41"/>
<path id="Vector_13" d="M14.6618 117.592C16.9671 117.615 18.8649 114.699 18.9008 111.08C18.9165 109.496 18.5727 108.039 17.9878 106.9L17.9824 104.818L19.0493 76.6165C19.0493 76.6165 25.997 53.6302 25.3641 49.9556C24.7313 46.2811 21.3576 45.0054 21.3576 45.0054L17.2187 45.7564L9.6792 79.7119L11.3732 103.555L11.548 106.837C10.9408 107.964 10.5682 109.413 10.5526 110.997C10.5167 114.617 12.3565 117.569 14.6618 117.592Z" fill="#A0616A"/>
<path id="Vector_14" d="M19.6518 41.3237C19.6518 41.3237 8.58854 60.963 10.183 66.5889L22.4461 67.0879C22.4461 67.0879 23.1158 67.6071 23.0643 65.2318C23.0128 62.8565 25.7927 60.2027 25.7927 60.2027C25.7927 60.2027 25.7406 61.3603 25.3867 59.3924C25.0328 57.4245 31.7934 51.6743 31.7934 51.6743L19.6518 41.3237Z" fill="#E6E6E6"/>
</g>
<g id="Group_6">
<path id="Vector_15" d="M48.193 96.5225L49.4772 65.9349C49.4772 65.9349 50.9197 47.7757 52.0738 41.4343C53.2279 35.093 61.0177 36.8224 61.0177 36.8224L60.1522 54.9817L56.4177 73.5653L53.511 98.871C53.6608 99.603 53.7456 100.399 53.7456 101.234C53.7456 104.779 52.2637 107.653 50.4356 107.653C48.6076 107.653 47.1257 104.779 47.1257 101.234C47.1257 99.3692 47.5382 97.6953 48.193 96.5225Z" fill="#FFB6B6"/>
<path id="Vector_16" d="M110.706 88.597C109.341 86.972 107.705 85.8677 106.236 85.4426L88.9635 65.9349C88.9635 65.9349 87.5209 47.7757 86.3669 41.4343C85.2128 35.093 77.423 36.8225 77.423 36.8225L78.2885 54.9817L83.1932 74.5822L103.405 91.7259C103.758 92.3684 104.191 93.0105 104.709 93.6272C107.168 96.5533 110.504 97.7993 112.16 96.4102C113.816 95.0212 113.165 91.523 110.706 88.597Z" fill="#FFB6B6"/>
<path id="Vector_17" d="M72.7025 34.3724L70.6988 26.6767L62.893 26.3016L60.5577 36.9098L72.7025 34.3724Z" fill="#FFB6B6"/>
<path id="Vector_18" opacity="0.1" d="M72.7025 34.3724L70.6988 26.6767L62.893 26.3016L60.5577 36.9098L72.7025 34.3724Z" fill="black"/>
<g id="Group_7">
<path id="Vector_19" d="M92.6349 160.448L99.9459 160.031L98.9868 182.447L94.0328 182.73L92.6349 160.448Z" fill="#FFB6B6"/>
<path id="Vector_20" d="M99.6204 175.36L97.0818 176.517L97.0851 178.054C97.0851 178.054 96.4727 176.275 93.1852 175.886L92.7928 177.377C92.7928 177.377 91.5178 178.839 91.7364 181.484L92.5733 188.566L95.0525 188.509L95.453 183.581C95.453 183.581 96.1359 182.462 99.2818 187.776C99.2818 187.776 102.747 188.649 108.114 186.851C108.851 186.604 109.364 185.916 109.354 185.139C109.349 184.71 109.181 184.314 108.642 184.172C107.272 183.81 105.934 184.269 105.049 183.176C104.165 182.083 99.6204 175.36 99.6204 175.36Z" fill="#2F2E41"/>
</g>
<g id="Group_8">
<path id="Vector_21" d="M53.3972 160.448L60.7081 160.031L59.7491 182.447L54.7951 182.73L53.3972 160.448Z" fill="#FFB6B6"/>
<path id="Vector_22" d="M60.3826 175.36L57.8441 176.517L57.8474 178.054C57.8474 178.054 57.2349 176.275 53.9475 175.886L53.555 177.377C53.555 177.377 52.28 178.839 52.4987 181.484L53.3355 188.566L55.8148 188.509L56.2152 183.581C56.2152 183.581 56.8982 182.462 60.044 187.776C60.044 187.776 63.5094 188.649 68.8759 186.851C69.6135 186.604 70.1258 185.916 70.1162 185.139C70.1108 184.71 69.943 184.314 69.4047 184.172C68.0345 183.81 66.6965 184.269 65.8117 183.176C64.9268 182.083 60.3826 175.36 60.3826 175.36Z" fill="#2F2E41"/>
</g>
<path id="Vector_23" d="M66.701 31.2087C71.4812 31.2087 75.3563 27.3372 75.3563 22.5615C75.3563 17.7857 71.4812 13.9142 66.701 13.9142C61.9207 13.9142 58.0456 17.7857 58.0456 22.5615C58.0456 27.3372 61.9207 31.2087 66.701 31.2087Z" fill="#FFB6B6"/>
<path id="Vector_24" d="M61.7927 23.9989C61.7927 23.9989 65.5981 17.7781 69.4074 18.4648C73.2167 19.1514 75.2026 19.7713 75.2026 19.7713C75.2026 19.7713 76.7538 14.8114 71.5458 12.4318C71.5458 12.4318 78.916 6.26682 71.061 2.31033C63.206 -1.64617 58.318 2.18831 58.318 2.18831C58.318 2.18831 51.8166 7.69679 59.0248 12.7947C59.0248 12.7947 52.786 19.8947 59.0873 26.6767C59.0873 26.6767 57.9749 21.5126 59.4882 22.5712C61.0014 23.6299 61.7927 23.9989 61.7927 23.9989Z" fill="#2F2E41"/>
<path id="Vector_25" d="M60.8734 34.9489L72.7025 33.5077L81.7906 40.8578C81.7906 40.8578 86.3105 53.4397 82.9447 61.0348C82.864 61.2168 82.8004 73.8616 82.8004 73.8616H57.668C57.668 73.8616 57.6924 65.2548 56.732 62.1377C56.5948 61.6923 56.4376 61.3591 56.2572 61.1789C54.8147 59.7377 51.3525 50.514 53.0836 46.4786C54.8147 42.4432 60.8734 34.9489 60.8734 34.9489Z" fill="#F13B97"/>
<path id="Vector_26" d="M82.9447 73.2851L98.8129 123.727L102.275 163.505H92.6098L84.3872 126.61L73.0637 105.253L61.8832 166.387H52.1272L52.3623 83.6618L57.6884 73.2851H82.9447Z" fill="#2F2E41"/>
</g>
<path id="Vector_27" d="M155.012 44.3903L153.515 35.0391L163.623 30.9246L165.121 45.1384L155.012 44.3903Z" fill="#A0616A"/>
<path id="Vector_28" opacity="0.1" d="M155.012 44.3903L153.515 35.0391L163.623 30.9246L165.121 45.1384L155.012 44.3903Z" fill="black"/>
<g id="Group_9">
<path id="uuid-3c77ad98-4e4f-4221-b0fd-df95ba10ebf6-800" d="M110.685 87.145C108.995 89.1684 108.669 91.6801 109.959 92.7547C111.248 93.8294 113.663 93.0601 115.354 91.0357C116.04 90.2363 116.525 89.2843 116.768 88.2592L123.822 79.5954L120.386 76.8171L113.167 85.2576C112.201 85.6797 111.35 86.3269 110.685 87.145Z" fill="#A0616A"/>
<path id="Vector_29" d="M141.516 44.3227L143.971 54.0391L131.954 73.2573L119.687 85.5751L115.71 82.2795L128.083 66.8999L137.461 47.0837L141.516 44.3227Z" fill="#E6E6E6"/>
</g>
<path id="Vector_30" d="M150.519 168.2L148.273 177.552L155.012 179.422L156.51 169.323L150.519 168.2Z" fill="#A0616A"/>
<path id="Vector_31" d="M139.662 137.903L146.775 143.887L151.268 150.994L144.903 155.109L134.046 142.765L139.662 137.903Z" fill="#A0616A"/>
<path id="Vector_32" d="M141.908 76.1844L135.918 96.3831C135.918 96.3831 109.335 119.574 111.956 124.437C114.577 129.299 132.174 142.765 132.174 142.765C132.174 142.765 130.868 147.071 134.703 145.292C138.539 143.513 142.657 138.651 142.657 138.651C142.657 138.651 142.657 134.91 140.785 135.658C138.913 136.406 130.302 126.307 130.302 126.307L150.402 109.372L149.022 166.635C149.022 166.635 144.529 170.56 149.022 170.876C153.515 171.193 156.135 171.941 156.135 171.941C156.135 171.941 161.377 170.071 159.505 168.2L166.619 137.528L173.507 105.392C174.311 101.639 174.033 97.7344 172.705 94.1328L167.742 80.673L141.908 76.1844Z" fill="#2F2E41"/>
<path id="Vector_33" d="M153.889 176.43C153.889 176.43 153.515 174.933 152.017 174.933H147.443C147.443 174.933 146.027 181.292 146.401 181.292C146.775 181.292 140.411 189.521 147.15 189.895C153.889 190.269 155.761 189.521 155.761 189.521L156.51 186.569C156.51 186.569 157.633 184.659 157.259 183.162C156.884 181.666 153.889 176.43 153.889 176.43Z" fill="#2F2E41"/>
<path id="Vector_34" d="M144.529 152.116C144.529 152.116 140.229 152.049 141.256 153.205C142.283 154.361 144.155 156.231 144.155 156.231C144.155 156.231 148.608 165.208 150.687 163.525C152.766 161.842 156.135 143.139 155.012 140.895C153.889 138.651 152.391 138.651 152.391 138.651L145.484 142.801C145.484 142.801 149.771 153.238 144.529 152.116Z" fill="#2F2E41"/>
<path id="Vector_35" d="M165.683 43.0812L153.702 40.0888L140.972 44.2033C140.972 44.2033 135.356 59.9134 137.228 65.5241C139.1 71.1348 140.668 79.8217 140.668 79.8217C140.668 79.8217 139.287 77.3066 150.145 80.6731C161.003 84.0395 168.865 83.6654 168.865 83.6654L169.239 70.1997L173.943 58.2388C175.953 53.1264 173.786 47.3219 168.916 44.7733L165.683 43.0812Z" fill="#E6E6E6"/>
<g id="Group_10">
<path id="Vector_36" d="M158.909 38.733C164.495 38.733 169.023 34.209 169.023 28.6283C169.023 23.0477 164.495 18.5236 158.909 18.5236C153.323 18.5236 148.795 23.0477 148.795 28.6283C148.795 34.209 153.323 38.733 158.909 38.733Z" fill="#A0616A"/>
<path id="Vector_37" d="M167.078 35.2352C167.078 35.2352 165.522 36.7898 163.966 37.5671C163.519 37.7904 163.554 37.4684 163.83 36.896C165.233 33.9899 164.694 30.5211 162.41 28.2397L162.799 25.9078L149.573 24.7419C149.573 24.7419 148.017 18.5236 156.186 17.3577C157.575 17.1595 151.129 16.9691 152.685 13.8599C154.241 10.7508 155.408 11.5281 156.186 9.19623C156.964 6.86438 156.964 4.92117 159.687 5.30981C162.41 5.69846 162.41 7.25302 165.133 5.69845C167.856 4.14389 174.469 5.69845 173.302 8.0303C172.135 10.3622 170.19 12.3054 171.746 13.8599C173.302 15.4145 176.803 18.135 174.08 20.0782C171.357 22.0214 170.579 23.1873 170.968 23.9646C171.357 24.7419 168.634 23.1873 168.634 23.1873C168.634 23.1873 171.357 28.6283 170.19 30.5715C169.023 32.5147 167.078 35.2352 167.078 35.2352Z" fill="#2F2E41"/>
</g>
<path id="Vector_38" d="M224.193 67.8099H203.415V94.3097H224.193V67.8099Z" fill="#FFB6B6"/>
<path id="Vector_39" d="M204.741 20.1102C203.688 18.135 203.196 17.2746 203.415 16.1352C203.8 14.1337 206.038 13.0456 206.951 12.6019C209.884 11.1765 213.686 11.2617 216.677 13.0435C218.474 14.1141 219.434 15.4723 220.214 16.5769C220.913 17.5668 223.087 20.645 222.866 24.5268C222.7 27.4409 221.366 27.6218 221.54 29.3851C221.977 33.8114 230.491 33.7478 232.592 38.6601C234.487 43.0896 230.69 50.4482 225.077 53.235C216.531 57.4776 207.281 49.3842 205.625 47.935C201.634 44.4431 198.995 39.6376 199.878 38.6601C200.395 38.0877 201.757 39.2306 203.857 38.6601C206.251 38.0095 207.522 35.698 207.836 35.1268C209.648 31.8284 208.585 28.2196 208.278 27.1768C207.992 26.2082 206.909 24.1755 204.741 20.1102Z" fill="#2F2E41"/>
<g id="Group_11">
<path id="Vector_40" d="M193.614 184.442L187.555 184.442L184.673 161.095L193.615 161.095L193.614 184.442Z" fill="#FFB6B6"/>
<path id="Vector_41" d="M172.856 184.305C172.668 184.622 172.568 185.647 172.568 186.016C172.568 187.151 173.489 188.07 174.624 188.07H193.387C194.162 188.07 194.79 187.443 194.79 186.669V185.888C194.79 185.888 195.718 183.543 193.807 180.652C193.807 180.652 191.432 182.916 187.883 179.37L186.837 177.476L179.261 183.011L175.062 183.527C174.143 183.64 173.329 183.51 172.856 184.305Z" fill="#2F2E41"/>
</g>
<g id="Group_12">
<path id="Vector_42" d="M228.538 184.442L222.479 184.442L219.597 161.095L228.539 161.095L228.538 184.442Z" fill="#FFB6B6"/>
<path id="Vector_43" d="M207.781 184.305C207.592 184.622 207.492 185.647 207.492 186.016C207.492 187.151 208.413 188.07 209.549 188.07H228.311C229.086 188.07 229.714 187.443 229.714 186.669V185.888C229.714 185.888 230.642 183.543 228.731 180.652C228.731 180.652 226.356 182.916 222.807 179.37L221.761 177.476L214.185 183.011L209.986 183.527C209.068 183.64 208.253 183.51 207.781 184.305Z" fill="#2F2E41"/>
</g>
<path id="Vector_44" d="M209.162 29.8268L209.604 43.5184L225.519 45.7267L217.34 27.1385L209.162 29.8268Z" fill="#FFB6B6"/>
<path id="Vector_45" d="M213.583 34.2434C218.71 34.2434 222.866 30.0909 222.866 24.9685C222.866 19.8461 218.71 15.6935 213.583 15.6935C208.455 15.6935 204.299 19.8461 204.299 24.9685C204.299 30.0909 208.455 34.2434 213.583 34.2434Z" fill="#FFB6B6"/>
<path id="Vector_46" d="M224.193 83.7098C224.193 83.7098 234.139 94.5305 227.95 104.247L228.834 135.605C228.834 135.605 232.517 158.321 228.244 173.242L220.877 172.705L215.572 133.839L210.267 108.222L197.889 133.397C197.889 133.397 198.773 151.505 194.352 170.938H184.626L185.511 125.889L201.647 78.8515L224.193 83.7098Z" fill="#2F2E41"/>
<path id="Vector_47" d="M209.604 38.2184L210.27 37.9764L219.33 34.6851C219.33 34.6851 230.824 43.5184 230.824 48.3767C230.824 53.235 224.635 70.9015 224.635 70.9015C224.635 70.9015 233.034 79.7348 225.519 80.1765C218.003 80.6181 214.055 73.4603 201.677 78.7602L200.762 67.3682C200.762 67.3682 195.457 55.8849 198.11 53.235L209.604 38.2184Z" fill="#F13B97"/>
<g id="Group_13">
<path id="uuid-f3810b44-6ed8-4ba4-aece-9f62ede2237e-801" d="M222.177 106.655C222.234 110.262 224.143 113.157 226.44 113.12C228.738 113.084 230.554 110.131 230.497 106.522C230.493 105.081 230.145 103.661 229.48 102.381L229.046 87.1012L222.998 87.288L223.062 102.483C222.438 103.783 222.134 105.214 222.177 106.655Z" fill="#FFB6B6"/>
<path id="Vector_48" d="M225.343 39.1824C228.781 38.6217 231.9 41.2795 231.889 44.7598L230.071 99.4965L222.876 99.3273L220.614 44.7958C220.587 42.0148 222.596 39.6305 225.343 39.1824Z" fill="#F13B97"/>
</g>
<g id="Group_14">
<path id="uuid-1f352128-bb30-410f-afa3-1f56ea30cdf5-802" d="M164.371 79.7127C161.543 81.9559 160.409 85.232 161.839 87.0297C163.268 88.8274 166.718 88.4659 169.547 86.2214C170.689 85.3404 171.603 84.1988 172.213 82.8923L184.075 73.2363L180.241 68.5599L168.222 77.8712C166.809 78.169 165.489 78.8004 164.371 79.7127Z" fill="#FFB6B6"/>
<path id="Vector_49" d="M219.845 41.0996C222.386 43.4811 222.177 47.5716 219.408 49.6835L174.863 81.6023L170.612 75.8005L212.509 40.7748C214.699 39.0586 217.815 39.1965 219.845 41.0996Z" fill="#F13B97"/>
</g>
<path id="Vector_50" d="M209.162 19.6685C208.109 17.6933 207.616 16.8329 207.836 15.6935C208.221 13.692 210.459 12.604 211.372 12.1602C214.305 10.7349 218.107 10.82 221.098 12.6019C222.895 13.6724 223.854 15.0306 224.635 16.1352C225.334 17.1251 227.508 20.2033 227.287 24.0851C227.121 26.9992 225.787 27.1802 225.961 28.9434C226.397 33.3698 234.911 33.3062 237.013 38.2184C238.908 42.6479 235.11 50.0066 229.497 52.7933C220.952 57.0359 211.702 48.9425 210.046 47.4933C206.055 44.0015 203.416 39.1959 204.299 38.2184C204.816 37.646 206.178 38.789 208.278 38.2184C210.672 37.5679 211.942 35.2563 212.256 34.6851C214.069 31.3867 213.006 27.7779 212.698 26.7351C212.413 25.7665 211.329 23.7338 209.162 19.6685Z" fill="#2F2E41"/>
<g id="Group_15">
<path id="uuid-09c2a9e3-35cc-4919-a11f-a37384527e4b-803" d="M160.266 79.6492C157.74 80.411 156.087 82.3304 156.572 83.9361C157.058 85.5418 159.498 86.2256 162.025 85.4632C163.038 85.1724 163.967 84.6435 164.734 83.9206L175.394 80.5579L174.052 76.3496L163.378 79.4358C162.338 79.2576 161.271 79.3308 160.266 79.6492Z" fill="#A0616A"/>
<path id="Vector_51" d="M178.787 52.0583L167.555 43.8293L167.929 59.5393L178.412 73.0051L167.18 77.4936L167.555 83.9025C167.555 83.9025 181.782 80.486 184.028 80.112C186.275 79.7379 188.147 74.5013 188.147 74.5013L178.787 52.0583Z" fill="#E6E6E6"/>
</g>
</g>
</svg>
