<svg width="100" height="100" viewBox="0 0 100 100" fill="none" xmlns="http://www.w3.org/2000/svg">
<g id="undraw_female_avatar_efig 1" clip-path="url(#clip0_26_701)">
<path id="Vector" d="M71.2764 71.25H46.2764V37.4154L67.8929 49.2575L71.2764 71.25Z" fill="#2F2E41"/>
<path id="Vector_2" d="M50.8948 65.2784C59.859 65.2784 67.1258 58.0116 67.1258 49.0474C67.1258 40.0833 59.859 32.8164 50.8948 32.8164C41.9307 32.8164 34.6638 40.0833 34.6638 49.0474C34.6638 58.0116 41.9307 65.2784 50.8948 65.2784Z" fill="#FFB6B6"/>
<path id="Vector_3" d="M41.5771 67.6786L40.8438 60.2662L55.4869 57.5282L64.1335 78.5808L49.0959 95.8741L38.3816 74.8214L41.5771 67.6786Z" fill="#FFB6B6"/>
<path id="Vector_4" d="M85.9097 84.7913C85.7274 84.9812 85.5413 85.1692 85.3552 85.3553C84.765 85.9455 84.1635 86.5188 83.5488 87.0752C74.3383 95.4286 62.5206 100 49.9999 100C38.4567 100 27.5112 96.1147 18.656 88.9624C18.6503 88.9586 18.6466 88.9549 18.6409 88.9492C18.3721 88.7331 18.1071 88.5131 17.842 88.2895C17.889 88.1541 17.9398 88.0207 17.9905 87.8891C20.8383 80.4699 26.4624 76.8402 29.8759 75.2519C31.5676 74.4643 32.7161 74.1767 32.7161 74.1767L36.7236 66.9586L39.5451 72.2218L41.624 76.1015L50.1541 92.0169L57.5131 73.6936L59.7932 68.0131L60.3778 66.5583L63.1578 68.7218L65.7894 70.7688L71.0883 71.938L75.3872 72.8872L81.2255 74.1767C83.5864 76.0996 85.0225 79.7575 85.8251 84.3026C85.8552 84.4643 85.8834 84.6278 85.9097 84.7913Z" fill="#F13B97"/>
<path id="Vector_5" d="M42.3571 30.6021C44.3342 27.281 47.9653 25.0024 51.8157 24.6666C55.6661 24.3307 59.6369 25.9463 62.1591 28.8749C63.6621 30.6201 64.6476 32.7573 66.1126 34.5345C69.2653 38.3588 74.6412 40.5949 76.0184 45.356C76.6194 47.4337 76.32 49.6518 76.0159 51.7931C75.7552 53.6284 75.4946 55.4638 75.2339 57.2991C75.0311 58.7275 74.8366 60.2332 75.3722 61.5728C76.0005 63.1444 77.5042 64.1737 78.4764 65.5591C80.1307 67.9166 80.0098 71.3681 78.1945 73.6039C77.4073 74.5736 76.3636 75.3048 75.5383 76.2422C74.713 77.1797 74.1008 78.4613 74.4464 79.6615C75.1086 81.9606 78.7142 82.512 79.1097 84.8717C79.3119 86.0781 78.4786 87.2829 77.3868 87.8345C76.295 88.3862 75.0098 88.4022 73.7955 88.2546C69.1802 87.6937 64.9069 84.8098 62.6598 80.7397C60.4127 76.6695 60.2491 71.5168 62.2334 67.3123C63.8632 63.859 66.8923 60.8074 66.8593 56.989C66.8413 54.9088 65.8872 52.9659 64.9542 51.1065C63.0445 47.3009 61.1349 43.4953 59.2253 39.6898C58.2023 37.6512 57.0152 35.4545 54.9093 34.5787C53.2817 33.9019 51.435 34.1644 49.6942 34.4413C47.9533 34.7181 46.1093 34.9875 44.4769 34.3225C42.8444 33.6574 41.611 31.6815 42.3888 30.0997" fill="#2F2E41"/>
<path id="Vector_6" d="M45.2013 30.7755C42.0654 29.7433 38.5477 31.4004 36.4247 33.9286C34.3018 36.4568 33.2719 39.7004 32.2909 42.8526C31.729 44.6582 31.167 46.4638 30.6051 48.2695C30.0765 49.968 29.5479 51.6665 29.0192 53.3651C28.3975 55.363 27.7706 57.4855 28.2809 59.5147C28.6498 60.9817 29.599 62.3138 29.6195 63.8264C29.6408 65.4064 28.6513 66.7935 27.7842 68.1144C26.9171 69.4354 26.1031 71.0049 26.5162 72.5301C27.1446 74.8499 30.37 76.1251 30.1932 78.5221C30.1342 79.322 29.6716 80.0619 29.68 80.864C29.6907 81.8845 30.4897 82.7663 31.4258 83.1729C32.3618 83.5795 33.4148 83.6016 34.4352 83.5836C37.5652 83.5286 40.6895 83.1569 43.745 82.476C44.9205 82.2141 46.116 81.8928 47.0945 81.1906C48.0731 80.4885 48.8031 79.3251 48.6757 78.1275C48.4773 76.2612 46.4707 75.2024 45.458 73.6222C44.4634 72.0701 44.4865 70.1035 44.0576 68.3106C43.4682 65.8466 42.0124 63.6955 40.9196 61.4098C36.8112 52.8165 38.2494 41.8633 44.437 34.622C44.9841 33.9817 45.5818 33.3376 45.81 32.527C46.0382 31.7163 45.744 30.6835 44.951 30.3999" fill="#2F2E41"/>
<path id="Vector_7" d="M85.3553 14.6447C75.9117 5.20112 63.3553 0 50 0C36.6447 0 24.0884 5.20112 14.6447 14.6447C5.20112 24.0883 0 36.6447 0 50C0 62.1898 4.3327 73.7143 12.2726 82.8139C13.0301 83.6842 13.8214 84.5319 14.6447 85.3553C14.8383 85.5489 15.0338 85.7425 15.2312 85.9304C15.7575 86.4398 16.2932 86.938 16.8384 87.421C17.1692 87.7162 17.5038 88.0056 17.8421 88.2895C18.1071 88.5131 18.3722 88.7331 18.641 88.9492C18.6466 88.9549 18.6504 88.9586 18.656 88.9624C27.5113 96.1147 38.4568 100 50 100C62.5207 100 74.3383 95.4286 83.5489 87.0752C84.1635 86.5188 84.765 85.9455 85.3553 85.3553C85.5414 85.1692 85.7274 84.9812 85.9098 84.7913C86.4173 84.2688 86.9098 83.7368 87.391 83.1974C95.5432 74.0395 100 62.3628 100 50C100 36.6447 94.7989 24.0883 85.3553 14.6447ZM87.2688 82.7293C86.7989 83.2632 86.3177 83.7895 85.8252 84.3026C85.0583 85.1015 84.2669 85.8759 83.4492 86.6222C83.1391 86.9079 82.8252 87.1861 82.5075 87.4624C79.2989 90.2538 75.7274 92.6372 71.8759 94.5357C70.5244 95.203 69.1391 95.8101 67.7218 96.3534C62.2162 98.4662 56.2406 99.6241 50 99.6241C43.9774 99.6241 38.203 98.5451 32.859 96.5714C30.6654 95.7631 28.5451 94.8026 26.5094 93.703C26.2105 93.5413 25.9135 93.3778 25.6184 93.2105C24.0658 92.3308 22.5639 91.3703 21.1222 90.3327C20.0451 89.5601 19 88.7462 17.9906 87.8891C17.6372 87.5902 17.2876 87.2876 16.9436 86.9774C16.3835 86.4793 15.8346 85.9662 15.2989 85.4398C14.2838 84.4455 13.3139 83.4098 12.3872 82.3327C4.90414 73.641 0.37594 62.3402 0.37594 50C0.37594 22.6372 22.6372 0.37594 50 0.37594C77.3628 0.37594 99.6241 22.6372 99.6241 50C99.6241 62.5301 94.9568 73.9887 87.2688 82.7293Z" fill="#3F3D56"/>
</g>
<defs>
<clipPath id="clip0_26_701">
<rect width="100" height="100" fill="white"/>
</clipPath>
</defs>
</svg>
