<svg width="122" height="131" viewBox="0 0 122 131" fill="none" xmlns="http://www.w3.org/2000/svg">
<g id="undraw_in_thought_re_qyxl 1" clip-path="url(#clip0_26_547)">
<path id="Vector" d="M26.4082 53.0541C20.6569 47.394 18.2279 41.4891 19.5683 36.4273C21.2884 29.9315 28.9303 25.4402 40.5343 24.105L40.5772 24.4777C29.1347 25.7941 21.6094 30.1846 19.9309 36.5232C18.6264 41.4493 21.0202 47.2253 26.6714 52.7869L26.4082 53.0541Z" fill="#F0F0F0"/>
<path id="Vector_2" d="M81.8979 73.1457C74.72 73.1457 66.9199 72.0794 59.1722 70.0288C49.5912 67.4931 40.8064 63.6656 33.7676 58.9601L33.976 58.6485C40.9809 63.3312 49.7268 67.1411 59.2682 69.6663C67.8906 71.9484 76.5777 73.0058 84.3871 72.7268L84.4006 73.1014C83.5759 73.1311 82.7416 73.1459 81.8979 73.1457Z" fill="#F0F0F0"/>
<path id="Vector_3" d="M98.3649 70.7876L98.2447 70.4324C104.664 68.2624 108.68 64.7669 109.856 60.3235C111.352 54.6747 108.103 48.1197 100.706 41.8659C93.2716 35.5803 82.5512 30.3649 70.519 27.1805L70.615 26.818C82.6997 30.0164 93.4724 35.2588 100.948 41.5796C108.462 47.9321 111.754 54.6229 110.219 60.4194C109.009 64.9903 104.909 68.5755 98.3649 70.7876Z" fill="#F0F0F0"/>
<path id="Vector_4" d="M39.4174 73.3025C25.3133 67.0488 14.445 58.9356 8.8147 50.457L9.12715 50.2495C14.7185 58.6694 25.5298 66.7346 39.5695 72.9597L39.4174 73.3025Z" fill="#F0F0F0"/>
<path id="Vector_5" d="M89.0065 84.1363C87.5517 84.1363 86.0721 84.1039 84.5676 84.0389L84.5837 83.6643C95.8111 84.1503 105.717 82.807 113.233 79.7791L113.373 80.127C106.817 82.768 98.4606 84.1363 89.0065 84.1363Z" fill="#F0F0F0"/>
<path id="Vector_6" d="M80.8232 24.4413C78.492 23.6826 76.0942 22.9761 73.6964 22.3414C59.8978 18.6895 46.3337 17.3929 34.4699 18.5924L34.4321 18.2193C46.3402 17.0158 59.9508 18.3155 73.7924 21.9789C76.197 22.6154 78.6016 23.3239 80.9393 24.0848L80.8232 24.4413Z" fill="#F0F0F0"/>
<path id="Vector_7" d="M17.5935 53.6166C11.8422 47.9565 9.41319 42.0516 10.7536 36.9898C12.4737 30.494 20.1156 26.0027 31.7196 24.6675L31.7625 25.0402C20.32 26.3566 12.7947 30.7471 11.1162 37.0857C9.81174 42.0118 12.2055 47.7878 17.8567 53.3494L17.5935 53.6166Z" fill="#F0F0F0"/>
<path id="Vector_8" d="M73.0832 73.7082C65.9053 73.7082 58.1052 72.6419 50.3575 70.5913C40.7765 68.0556 31.9917 64.2281 24.9529 59.5226L25.1613 59.211C32.1662 63.8937 40.9121 67.7036 50.4535 70.2288C59.0759 72.5109 67.763 73.5683 75.5724 73.2893L75.5859 73.6639C74.7612 73.6936 73.9269 73.7084 73.0832 73.7082Z" fill="#F0F0F0"/>
<path id="Vector_9" d="M89.5502 71.3501L89.43 70.9949C95.8497 68.8249 99.8649 65.3294 101.042 60.886C102.537 55.2372 99.2878 48.6822 91.8913 42.4284C84.4569 36.1428 73.7365 30.9274 61.7043 27.743L61.8003 27.3805C73.885 30.5789 84.6577 35.8213 92.1334 42.1421C99.6468 48.4946 102.939 55.1854 101.404 60.9819C100.194 65.5528 96.0948 69.138 89.5502 71.3501Z" fill="#F0F0F0"/>
<path id="Vector_10" d="M30.6027 73.8649C16.4986 67.6113 5.63026 59.498 0 51.0195L0.312457 50.812C5.90381 59.2319 16.7151 67.2971 30.7548 73.5222L30.6027 73.8649Z" fill="#F0F0F0"/>
<path id="Vector_11" d="M80.1918 84.6988C78.737 84.6988 77.2574 84.6664 75.7529 84.6014L75.769 84.2268C86.9964 84.7128 96.9026 83.3695 104.418 80.3416L104.559 80.6895C98.0024 83.3305 89.6459 84.6988 80.1918 84.6988Z" fill="#F0F0F0"/>
<path id="Vector_12" d="M72.0085 25.0038C69.6773 24.245 67.2795 23.5385 64.8817 22.9039C51.0831 19.252 37.519 17.9553 25.6552 19.1549L25.6174 18.7818C37.5255 17.5783 51.1361 18.878 64.9777 22.5414C67.3823 23.1778 69.7869 23.8863 72.1246 24.6473L72.0085 25.0038Z" fill="#F0F0F0"/>
<g id="Group 221">
<path id="Path 2938" d="M74.3411 58.7576L77.5294 58.3826L78.6547 68.1323L81.5277 81.596C81.9273 81.7906 82.2533 82.109 82.4572 82.5038C82.6612 82.8987 82.7321 83.3488 82.6595 83.7871C82.5868 84.2255 82.3745 84.6287 82.0541 84.9367C81.7338 85.2447 81.3225 85.4411 80.8814 85.4965C80.4404 85.5519 79.9933 85.4634 79.6067 85.2443C79.22 85.0251 78.9145 84.687 78.7356 84.2803C78.5567 83.8735 78.514 83.4198 78.6138 82.9868C78.7137 82.5538 78.9507 82.1647 79.2897 81.8772L76.4041 73.9447L74.3411 58.7576Z" fill="#FFB6B6"/>
<path id="Path 2939" d="M69.7094 128.265H72.3361L73.586 118.135H69.709L69.7094 128.265Z" fill="#FFB6B6"/>
<path id="Path 2940" d="M69.0393 130.81H77.5093V130.703C77.5093 129.829 77.1619 128.99 76.5437 128.372C75.9255 127.754 75.0871 127.407 74.2128 127.407H69.0393V130.81Z" fill="#2F2E41"/>
<path id="Path 2941" d="M49.5498 126.832L52.129 127.33L55.2775 117.622L51.4703 116.887L49.5498 126.832Z" fill="#FFB6B6"/>
<path id="Path 2942" d="M48.4099 129.205L56.7263 130.81L56.7466 130.705C56.9123 129.847 56.7303 128.958 56.2405 128.234C55.7507 127.51 54.9933 127.01 54.1348 126.844L49.0555 125.863L48.4099 129.205Z" fill="#2F2E41"/>
<path id="Path 2943" d="M73.8283 42.7806L72.3021 45.7081L60.8708 43.1876L62.1231 37.5116C63.1143 33.0188 67.0879 29.7742 71.5819 30.7651C76.0759 31.756 78.1727 36.1472 77.1815 40.6399L75.3394 46.3773L73.4755 45.9663L73.8283 42.7806Z" fill="#2F2E41"/>
<path id="Path 2944" d="M77.9044 75.0698C77.9044 75.0698 79.0297 80.6947 77.5293 88.9445C76.029 97.1943 75.6539 100.757 75.6539 100.757C75.6539 100.757 76.7792 102.069 76.029 102.819C75.2788 103.569 76.029 105.069 76.029 105.069L74.341 123.256L68.5271 122.319L69.2773 105.257C69.2773 105.257 68.5271 103.757 68.9022 103.382C69.2773 103.007 68.5271 100.757 68.5271 100.757L67.5893 82.9446L61.7754 102.444C61.7754 102.444 62.338 103.194 61.7754 103.757C61.2127 104.319 60.0874 107.132 60.0874 107.132L56.3365 120.256L50.335 119.131L53.7108 104.132C53.7108 104.132 53.3357 103.194 53.8984 102.632C54.0625 102.46 54.1823 102.25 54.2477 102.022C54.313 101.793 54.3219 101.552 54.2735 101.319C54.2735 101.319 53.7108 100.757 54.461 100.007C55.2112 99.2567 55.5863 96.2568 55.5863 96.2568C55.5863 96.2568 56.1489 76.1948 58.0244 75.0698C59.8999 73.9449 77.9044 75.0698 77.9044 75.0698Z" fill="#2F2E41"/>
<path id="Ellipse 569" d="M69.4239 44.0465C72.3242 44.0465 74.6753 41.6961 74.6753 38.7967C74.6753 35.8973 72.3242 33.5468 69.4239 33.5468C66.5237 33.5468 64.1726 35.8973 64.1726 38.7967C64.1726 41.6961 66.5237 44.0465 69.4239 44.0465Z" fill="#FFB6B6"/>
<path id="Path 2945" d="M62.0234 45.5169C62.0234 45.5169 58.2117 45.0705 57.0864 46.1954L58.2117 68.8823C58.2117 68.8823 57.4615 69.4448 57.8366 70.7573C58.0544 71.6187 58.0544 72.5208 57.8366 73.3822C57.8366 73.3822 56.7113 74.6947 57.274 75.2572C57.8366 75.8197 78.0917 75.4447 78.0917 75.4447C78.0917 75.4447 78.8419 74.1322 77.7166 73.3822C76.5914 72.6322 77.154 70.5698 77.154 70.5698C77.154 70.5698 77.5291 70.0073 76.5914 69.0698C75.6536 68.1324 74.9034 60.4451 74.9034 60.4451L77.3416 51.0703C77.3416 51.0703 74.8873 48.3008 72.0822 48.0919L62.0234 45.5169Z" fill="#E6E6E6"/>
<path id="Path 2946" d="M74.4356 51.1991L77.3413 51.0701C77.3413 51.0701 79.0292 54.445 79.2168 57.4449L80.2496 68.6361L73.5903 69.6321L74.4356 51.1991Z" fill="#E6E6E6"/>
<path id="Path 2947" d="M73.9232 39.0571L75.8737 36.548C75.9887 36.0198 75.8898 35.4675 75.5988 35.0119C75.3078 34.5562 74.8481 34.2343 74.3204 34.1164L66.9513 32.4914C66.4228 32.3764 65.8704 32.4752 65.4146 32.7662C64.9588 33.0571 64.6367 33.5166 64.5188 34.0442L64.5146 34.063L65.0424 37.0927L65.1351 37.0762C69.7084 36.261 71.0111 36.5479 73.8483 38.9935L73.9232 39.0571Z" fill="#2F2E41"/>
<path id="Path 2948" d="M54.2965 79.146L54.6482 64.3826L55.0233 53.8829L59.5244 54.4454L57.1071 79.5407C57.3613 79.8597 57.5152 80.247 57.5493 80.6535C57.5833 81.06 57.496 81.4674 57.2985 81.8243C57.1009 82.1812 56.8019 82.4716 56.4393 82.6586C56.0767 82.8456 55.6667 82.9209 55.2613 82.875C54.8558 82.8291 54.4731 82.664 54.1615 82.4007C53.8499 82.1373 53.6234 81.7875 53.5107 81.3955C53.398 81.0034 53.4041 80.5868 53.5282 80.1982C53.6523 79.8096 53.8889 79.4666 54.2081 79.2124C54.237 79.1894 54.2664 79.1674 54.2965 79.146Z" fill="#FFB6B6"/>
<path id="Path 2949" d="M60.3698 46.5117L57.0864 46.1952C57.0864 46.1952 56.5237 46.1952 55.9611 48.0702C55.3985 49.9451 52.3054 69.7611 52.3054 69.7611L59.1496 70.3821L60.3698 46.5117Z" fill="#E6E6E6"/>
</g>
<path id="Ellipse 563" d="M29.2886 20.7244C34.0013 20.7244 37.8217 16.9051 37.8217 12.1937C37.8217 7.48239 34.0013 3.66309 29.2886 3.66309C24.576 3.66309 20.7556 7.48239 20.7556 12.1937C20.7556 16.9051 24.576 20.7244 29.2886 20.7244Z" fill="#F13B97"/>
<path id="Vector_13" d="M31.2899 17.4363C29.5652 17.4363 27.8791 16.925 26.445 15.967C25.0109 15.0091 23.8932 13.6475 23.2332 12.0545C22.5731 10.4614 22.4004 8.70849 22.7369 7.01733C23.0734 5.32618 23.9039 3.77275 25.1235 2.55349C26.3431 1.33424 27.897 0.503912 29.5886 0.16752C31.2803 -0.168871 33.0337 0.00377815 34.6272 0.663636C36.2206 1.32349 37.5826 2.44092 38.5408 3.87462C39.4991 5.30831 40.0105 6.99388 40.0105 8.71817C40.0079 11.0296 39.0883 13.2455 37.4534 14.8799C35.8186 16.5143 33.602 17.4337 31.2899 17.4363ZM31.2899 0.374993C29.6394 0.374992 28.0258 0.864309 26.6534 1.78107C25.281 2.69782 24.2114 4.00085 23.5797 5.52536C22.9481 7.04988 22.7828 8.72741 23.1048 10.3458C23.4268 11.9642 24.2216 13.4509 25.3888 14.6177C26.5559 15.7845 28.0429 16.5791 29.6618 16.901C31.2807 17.2229 32.9587 17.0577 34.4836 16.4262C36.0086 15.7948 37.3119 14.7254 38.229 13.3534C39.146 11.9813 39.6354 10.3683 39.6354 8.71816C39.6329 6.50619 38.7529 4.38553 37.1883 2.82142C35.6238 1.25732 33.5025 0.377504 31.2899 0.374993Z" fill="#3F3D56"/>
<path id="Ellipse 565" d="M107.808 48.4982C111.044 48.4982 113.668 45.8754 113.668 42.6401C113.668 39.4048 111.044 36.782 107.808 36.782C104.572 36.782 101.948 39.4048 101.948 42.6401C101.948 45.8754 104.572 48.4982 107.808 48.4982Z" fill="#F13B97"/>
<path id="Vector_14" d="M109.183 46.2991C107.987 46.2991 106.817 45.9446 105.823 45.2803C104.828 44.616 104.053 43.6718 103.596 42.5671C103.138 41.4624 103.018 40.2468 103.251 39.0741C103.485 37.9013 104.061 36.8241 104.906 35.9786C105.752 35.1331 106.83 34.5573 108.003 34.3241C109.176 34.0908 110.392 34.2105 111.497 34.6681C112.602 35.1257 113.546 35.9005 114.211 36.8947C114.875 37.8889 115.23 39.0578 115.23 40.2535C115.228 41.8563 114.59 43.393 113.457 44.5264C112.323 45.6598 110.786 46.2973 109.183 46.2991ZM109.183 34.5829C108.061 34.5829 106.964 34.9155 106.031 35.5385C105.098 36.1616 104.371 37.0473 103.942 38.0834C103.513 39.1196 103.4 40.2598 103.619 41.3598C103.838 42.4598 104.378 43.4702 105.172 44.2632C105.965 45.0563 106.976 45.5964 108.076 45.8152C109.176 46.034 110.317 45.9217 111.353 45.4925C112.39 45.0633 113.276 44.3365 113.899 43.4039C114.522 42.4714 114.855 41.3751 114.855 40.2535C114.853 38.7501 114.255 37.3087 113.192 36.2456C112.128 35.1825 110.686 34.5846 109.183 34.5829Z" fill="#3F3D56"/>
<path id="Path 2960" d="M121.812 131H9.28398C9.23424 131 9.18654 130.98 9.15136 130.945C9.11619 130.91 9.09644 130.862 9.09644 130.812C9.09644 130.763 9.11619 130.715 9.15136 130.68C9.18654 130.645 9.23424 130.625 9.28398 130.625H121.812C121.862 130.625 121.91 130.645 121.945 130.68C121.98 130.715 122 130.763 122 130.812C122 130.862 121.98 130.91 121.945 130.945C121.91 130.98 121.862 131 121.812 131Z" fill="#CACACA"/>
<g id="Group 58">
<path id="Path 438" d="M113.972 123.374C113.381 123.582 112.745 123.634 112.127 123.525C111.51 123.416 110.93 123.15 110.445 122.753C109.21 121.716 108.823 120.008 108.508 118.427L107.575 113.75L109.527 115.094C110.93 116.06 112.365 117.057 113.337 118.456C114.309 119.855 114.733 121.765 113.952 123.28" fill="#FD6584"/>
<path id="Path 439" d="M113.671 129.362C113.917 127.573 114.169 125.761 113.997 123.953C113.844 122.347 113.354 120.778 112.356 119.492C111.826 118.811 111.182 118.227 110.452 117.767C110.261 117.647 110.086 117.949 110.276 118.068C111.539 118.867 112.516 120.046 113.067 121.435C113.674 122.98 113.772 124.665 113.667 126.306C113.603 127.298 113.469 128.285 113.334 129.269C113.323 129.314 113.33 129.361 113.353 129.401C113.375 129.441 113.412 129.47 113.456 129.484C113.501 129.496 113.548 129.49 113.588 129.467C113.628 129.444 113.658 129.407 113.67 129.362L113.671 129.362Z" fill="#F2F2F2"/>
<path id="Path 442" d="M111.903 126.492C111.649 126.877 111.3 127.191 110.89 127.403C110.48 127.614 110.022 127.717 109.56 127.7C108.374 127.644 107.386 126.817 106.496 126.032L103.864 123.707L105.606 123.624C106.858 123.564 108.144 123.508 109.338 123.895C110.532 124.281 111.632 125.21 111.85 126.444" fill="#E6E6E6"/>
<path id="Path 443" d="M114.365 130.39C113.184 128.299 111.811 125.974 109.361 125.231C108.679 125.025 107.965 124.951 107.256 125.014C107.032 125.032 107.088 125.377 107.312 125.358C108.5 125.259 109.687 125.573 110.671 126.247C111.618 126.891 112.356 127.787 112.98 128.738C113.362 129.319 113.705 129.927 114.047 130.533C114.156 130.726 114.476 130.586 114.365 130.39Z" fill="#F2F2F2"/>
</g>
<g id="Group 222">
<path id="Path 2961" d="M21.1928 125.809C21.6189 125.987 22.0836 126.052 22.5422 125.998C23.0008 125.944 23.4378 125.773 23.8111 125.502C24.7627 124.792 25.1195 123.553 25.4183 122.405L26.301 119.007L24.8101 119.912C23.7379 120.563 22.6411 121.235 21.8672 122.223C21.0933 123.211 20.7018 124.595 21.2118 125.741" fill="#E6E6E6"/>
<path id="Path 2962" d="M21.3323 130.418C21.1418 128.023 20.9793 125.329 22.5954 123.343C23.0452 122.791 23.5963 122.331 24.2192 121.986C24.415 121.876 24.5616 122.194 24.3652 122.303C23.3245 122.885 22.5165 123.809 22.0771 124.917C21.6523 125.981 21.5422 127.136 21.5564 128.273C21.5644 128.969 21.6204 129.664 21.6755 130.358C21.6935 130.579 21.35 130.642 21.3323 130.418Z" fill="#F2F2F2"/>
</g>
<path id="Ellipse 567" d="M17.7917 71.1306C22.4438 71.1306 26.215 67.3604 26.215 62.7096C26.215 58.0588 22.4438 54.2886 17.7917 54.2886C13.1397 54.2886 9.36841 58.0588 9.36841 62.7096C9.36841 67.3604 13.1397 71.1306 17.7917 71.1306Z" fill="#E4E4E4"/>
<path id="Vector_15" d="M19.7675 67.8874C18.0645 67.8874 16.3997 67.3825 14.9836 66.4366C13.5676 65.4907 12.4639 64.1462 11.8122 62.5732C11.1605 61.0002 10.9899 59.2694 11.3222 57.5995C11.6545 55.9296 12.4746 54.3958 13.6788 53.1919C14.8831 51.9879 16.4174 51.1681 18.0877 50.8359C19.7581 50.5038 21.4894 50.6743 23.0628 51.3258C24.6363 51.9774 25.9811 53.0808 26.9273 54.4964C27.8734 55.9121 28.3784 57.5764 28.3784 59.279C28.3758 61.5613 27.4678 63.7494 25.8535 65.3632C24.2392 66.9771 22.0505 67.8848 19.7675 67.8874ZM19.7675 51.0455C18.1387 51.0455 16.5464 51.5284 15.192 52.4331C13.8377 53.3378 12.7821 54.6237 12.1587 56.1282C11.5354 57.6327 11.3723 59.2881 11.6901 60.8852C12.0079 62.4824 12.7922 63.9494 13.944 65.1009C15.0958 66.2524 16.5633 67.0365 18.1609 67.3542C19.7584 67.6719 21.4144 67.5089 22.9192 66.8857C24.4241 66.2625 25.7104 65.2072 26.6153 63.8533C27.5203 62.4993 28.0033 60.9074 28.0033 59.279C28.0009 57.0961 27.1324 55.0033 25.5884 53.4598C24.0444 51.9162 21.951 51.048 19.7675 51.0455Z" fill="#2F2E41"/>
<path id="Vector_16" d="M12.7064 33.4383C13.5351 33.4383 14.2068 32.7668 14.2068 31.9384C14.2068 31.11 13.5351 30.4384 12.7064 30.4384C11.8778 30.4384 11.2061 31.11 11.2061 31.9384C11.2061 32.7668 11.8778 33.4383 12.7064 33.4383Z" fill="#F2F2F2"/>
<path id="Vector_17" d="M89.7885 25.9385C90.6171 25.9385 91.2888 25.267 91.2888 24.4386C91.2888 23.6102 90.6171 22.9386 89.7885 22.9386C88.9598 22.9386 88.2881 23.6102 88.2881 24.4386C88.2881 25.267 88.9598 25.9385 89.7885 25.9385Z" fill="#FD6584"/>
<path id="Vector_18" d="M99.7287 79.1871C100.557 79.1871 101.229 78.5156 101.229 77.6872C101.229 76.8588 100.557 76.1872 99.7287 76.1872C98.9 76.1872 98.2283 76.8588 98.2283 77.6872C98.2283 78.5156 98.9 79.1871 99.7287 79.1871Z" fill="#F2F2F2"/>
<path id="Vector_19" d="M32.5356 37.8071L32.5925 37.4364L39.9204 38.5603C39.1737 37.8396 36.7006 35.6107 34.4578 35.3847C31.7783 35.1148 30.5994 36.2615 30.4436 37.8069C30.2878 39.3523 31.214 40.7112 33.8935 40.9812C36.1648 41.2101 39.0778 39.4732 39.9129 38.9386L32.5356 37.8071Z" fill="#F2F2F2"/>
<path id="Vector_20" d="M102.657 17.9485L102.431 17.6492L108.347 13.1825C107.31 13.2149 103.987 13.4325 102.261 14.8819C100.199 16.6135 100.199 18.2579 101.198 19.4473C102.198 20.6367 103.818 20.9207 105.88 19.1891C107.628 17.7213 108.414 14.4229 108.613 13.4517L102.657 17.9485Z" fill="#F2F2F2"/>
<path id="Vector_21" d="M88.6884 60.9481L88.5257 60.7327L92.782 57.5192C92.0356 57.5425 89.6453 57.6991 88.4034 58.7418C86.9198 59.9876 86.9198 61.1706 87.6387 62.0263C88.3576 62.882 89.5231 63.0863 91.0068 61.8406C92.2644 60.7846 92.8301 58.4116 92.9733 57.7128L88.6884 60.9481Z" fill="#F2F2F2"/>
<path id="Vector_22" d="M54.9946 9.797C56.1478 6.69734 58.8724 4.01902 62.165 3.70044C60.1854 6.70336 59.3321 10.3095 59.7561 13.8808C59.9246 15.2575 60.2554 16.7712 59.5131 17.9429C59.0512 18.672 58.2371 19.1209 57.398 19.3234C56.5589 19.526 55.6845 19.5103 54.8214 19.4934L54.6281 19.5888C54.0211 16.3379 53.8414 12.8967 54.9946 9.797Z" fill="#F0F0F0"/>
<path id="Vector_23" d="M62.181 3.76797C59.9364 5.33565 58.243 7.57053 57.3412 10.1552C57.1372 10.7081 57.0217 11.2898 56.9988 11.8787C56.9951 12.4532 57.1454 13.0181 57.4339 13.5148C57.6937 13.9834 58.0136 14.4326 58.1549 14.9562C58.2233 15.2252 58.2339 15.5057 58.1863 15.7791C58.1386 16.0526 58.0336 16.3129 57.8782 16.543C57.506 17.1263 56.9463 17.5412 56.3849 17.9278C55.7616 18.3572 55.1073 18.7932 54.7259 19.4676C54.6796 19.5494 54.5555 19.4729 54.6017 19.3913C55.2653 18.2179 56.6579 17.7917 57.5099 16.795C57.9075 16.3299 58.1672 15.7422 58.0443 15.1229C57.9368 14.5814 57.6073 14.1179 57.3402 13.6457C57.0516 13.1652 56.885 12.6214 56.8551 12.0618C56.8479 11.4736 56.9408 10.8885 57.1299 10.3314C57.5357 9.0706 58.1373 7.88139 58.9126 6.80737C59.7907 5.57669 60.8729 4.50525 62.1123 3.63939C62.1891 3.58583 62.2573 3.71475 62.181 3.76797Z" fill="white"/>
<path id="Vector_24" d="M57.5826 9.30584C57.1693 9.09572 56.8443 8.74559 56.6654 8.31799C56.4866 7.89038 56.4656 7.41315 56.6063 6.97151C56.635 6.88224 56.7751 6.92273 56.7463 7.01211C56.6146 7.42313 56.6342 7.86768 56.8015 8.26552C56.9689 8.66336 57.273 8.9883 57.6589 9.18168C57.7428 9.2238 57.6659 9.34772 57.5826 9.30584Z" fill="white"/>
<path id="Vector_25" d="M57.2708 13.2946C58.1745 13.0092 58.9374 12.3939 59.4074 11.5711C59.4539 11.4896 59.5781 11.566 59.5316 11.6475C59.0409 12.5027 58.2457 13.1415 57.3046 13.4364C57.2149 13.4644 57.1815 13.3225 57.2708 13.2946Z" fill="white"/>
<path id="Vector_26" d="M59.8905 5.7422C60.0334 5.85681 60.2026 5.93412 60.3828 5.96721C60.563 6.0003 60.7487 5.98813 60.923 5.93178C61.0123 5.90261 61.0456 6.04458 60.9568 6.07356C60.7639 6.13492 60.5589 6.14812 60.3597 6.112C60.1605 6.07588 59.9732 5.99154 59.8141 5.86636C59.7981 5.85582 59.7868 5.83959 59.7823 5.82097C59.7779 5.80234 59.7807 5.78273 59.7902 5.76611C59.8004 5.74972 59.8167 5.73801 59.8354 5.73354C59.8542 5.72906 59.874 5.73217 59.8905 5.7422Z" fill="white"/>
<path id="Vector_27" d="M70.1014 11.6015C70.0462 11.6213 69.9909 11.6411 69.9353 11.6621C69.1939 11.9321 68.4756 12.2619 67.7875 12.6482C67.7339 12.6772 67.6799 12.7074 67.6272 12.7379C65.9795 13.6863 64.5222 14.9322 63.3295 16.4124C62.8554 17.0019 62.4268 17.6265 62.0476 18.281C61.5238 19.1848 61.0278 20.2064 60.2587 20.8651C60.1792 20.9348 60.0955 20.9994 60.008 21.0587L54.7596 19.8171C54.7491 19.8083 54.7383 19.8007 54.7277 19.7918L54.5159 19.7519C54.5331 19.7167 54.5517 19.6807 54.5689 19.6456C54.5788 19.6252 54.5898 19.605 54.5997 19.5846C54.6067 19.5711 54.6137 19.5576 54.6192 19.545C54.6215 19.5405 54.6239 19.536 54.6259 19.5326C54.6314 19.52 54.6379 19.5089 54.6431 19.4975C54.7465 19.2957 54.8515 19.0943 54.9581 18.8932C54.9584 18.892 54.9584 18.892 54.9599 18.8911C55.7574 17.3512 56.7349 15.9114 57.8718 14.6018C57.9063 14.5632 57.941 14.5234 57.9778 14.4853C58.497 13.9094 59.0625 13.3768 59.6685 12.893C60.0012 12.6291 60.347 12.3823 60.7047 12.1534C61.63 11.5637 62.6423 11.1232 63.7045 10.848C65.822 10.2997 68.0914 10.4345 69.9595 11.5174C70.0073 11.5451 70.0539 11.5726 70.1014 11.6015Z" fill="#F0F0F0"/>
<path id="Vector_28" d="M70.0737 11.6653C67.3374 11.566 64.6394 12.3311 62.3628 13.852C61.8669 14.1708 61.4243 14.5656 61.0514 15.0221C60.7025 15.4786 60.4823 16.02 60.4135 16.5903C60.3387 17.1208 60.3236 17.6721 60.1212 18.1751C60.0137 18.4311 59.8533 18.6615 59.6506 18.8511C59.4478 19.0408 59.2072 19.1854 58.9446 19.2756C58.2961 19.5173 57.5994 19.5117 56.9183 19.4825C56.162 19.4501 55.377 19.4044 54.6663 19.7133C54.5802 19.7508 54.5271 19.615 54.6131 19.5776C55.8496 19.0402 57.2182 19.5381 58.4988 19.2551C59.0963 19.123 59.6576 18.8102 59.9324 18.2417C60.1727 17.7446 60.1887 17.1762 60.2598 16.6384C60.3188 16.0811 60.5133 15.5466 60.8264 15.0818C61.1749 14.6078 61.6015 14.1965 62.088 13.8656C63.1713 13.1032 64.3678 12.5157 65.6337 12.1248C67.0759 11.6707 68.5852 11.4666 70.0963 11.5213C70.1898 11.5247 70.1666 11.6687 70.0737 11.6653Z" fill="white"/>
<path id="Vector_29" d="M63.067 13.3192C62.8636 12.9027 62.815 12.4275 62.9297 11.9784C63.0444 11.5293 63.3151 11.1357 63.6933 10.8677C63.77 10.8137 63.8575 10.9304 63.7807 10.9844C63.428 11.2333 63.1759 11.6 63.0699 12.0184C62.964 12.4368 63.0111 12.8793 63.2028 13.266C63.2443 13.3501 63.1084 13.4028 63.067 13.3192Z" fill="white"/>
<path id="Vector_30" d="M60.4162 16.3164C61.3096 16.6325 62.2894 16.6003 63.1601 16.2264C63.2464 16.1892 63.2994 16.325 63.2133 16.3621C62.3065 16.7496 61.2868 16.7809 60.3578 16.4499C60.2693 16.4183 60.3282 16.2849 60.4162 16.3164Z" fill="white"/>
<path id="Vector_31" d="M67.0561 11.863C67.1012 12.0405 67.1897 12.2041 67.3137 12.339C67.4377 12.4739 67.5932 12.5759 67.7664 12.6358C67.8552 12.6663 67.7963 12.7996 67.708 12.7694C67.517 12.7022 67.3453 12.5894 67.2081 12.4406C67.0708 12.2919 66.972 12.1118 66.9204 11.9161C66.914 11.8981 66.9146 11.8783 66.9223 11.8607C66.93 11.8432 66.944 11.8292 66.9616 11.8217C66.9797 11.8147 66.9997 11.8152 67.0174 11.8229C67.0351 11.8306 67.049 11.845 67.0561 11.863Z" fill="white"/>
<path id="Vector_32" d="M39.0532 52.5459C40.2064 49.4462 42.931 46.7679 46.2236 46.4493C44.244 49.4522 43.3907 53.0584 43.8147 56.6297C43.9832 58.0064 44.314 59.5201 43.5717 60.6918C43.1098 61.4209 42.2957 61.8698 41.4566 62.0723C40.6175 62.2749 39.7431 62.2592 38.88 62.2423L38.6867 62.3377C38.0797 59.0868 37.9 55.6455 39.0532 52.5459Z" fill="#F0F0F0"/>
<path id="Vector_33" d="M46.2394 46.5168C43.9948 48.0845 42.3013 50.3194 41.3996 52.904C41.1956 53.457 41.08 54.0387 41.0572 54.6276C41.0535 55.202 41.2037 55.767 41.4923 56.2637C41.752 56.7323 42.072 57.1815 42.2133 57.705C42.2816 57.9741 42.2923 58.2545 42.2446 58.528C42.1969 58.8015 42.092 59.0618 41.9366 59.2919C41.5644 59.8752 41.0047 60.29 40.4433 60.6767C39.8199 61.106 39.1656 61.5421 38.7842 62.2165C38.738 62.2982 38.6139 62.2218 38.66 62.1402C39.3236 60.9668 40.7163 60.5406 41.5683 59.5438C41.9658 59.0788 42.2256 58.4911 42.1026 57.8718C41.9952 57.3303 41.6656 56.8667 41.3985 56.3946C41.1099 55.9141 40.9434 55.3703 40.9135 54.8107C40.9062 54.2225 40.9992 53.6373 41.1883 53.0803C41.5941 51.8195 42.1957 50.6303 42.971 49.5562C43.849 48.3256 44.9312 47.2541 46.1707 46.3883C46.2474 46.3347 46.3156 46.4636 46.2394 46.5168Z" fill="white"/>
<path id="Vector_34" d="M41.6409 52.0547C41.2277 51.8446 40.9026 51.4945 40.7238 51.0669C40.5449 50.6393 40.524 50.162 40.6646 49.7204C40.6934 49.6311 40.8335 49.6716 40.8047 49.761C40.6729 50.172 40.6925 50.6165 40.8599 51.0144C41.0272 51.4122 41.3313 51.7372 41.7173 51.9305C41.8011 51.9727 41.7243 52.0966 41.6409 52.0547Z" fill="white"/>
<path id="Vector_35" d="M41.3294 56.0435C42.2331 55.7581 42.996 55.1427 43.466 54.32C43.5125 54.2385 43.6366 54.3149 43.5902 54.3964C43.0995 55.2516 42.3043 55.8904 41.3632 56.1853C41.2735 56.2133 41.2401 56.0714 41.3294 56.0435Z" fill="white"/>
<path id="Vector_36" d="M43.9488 48.4911C44.0918 48.6057 44.261 48.683 44.4412 48.7161C44.6214 48.7492 44.807 48.737 44.9814 48.6806C45.0707 48.6515 45.1039 48.7935 45.0152 48.8224C44.8223 48.8838 44.6173 48.897 44.4181 48.8609C44.2189 48.8248 44.0315 48.7404 43.8725 48.6152C43.8565 48.6047 43.8451 48.5885 43.8407 48.5698C43.8362 48.5512 43.8391 48.5316 43.8486 48.515C43.8587 48.4986 43.875 48.4869 43.8938 48.4824C43.9126 48.4779 43.9323 48.481 43.9488 48.4911Z" fill="white"/>
<path id="Vector_37" d="M54.1598 54.3504C54.1045 54.3702 54.0493 54.39 53.9937 54.411C53.2522 54.681 52.5339 55.0108 51.8459 55.3971C51.7922 55.4261 51.7383 55.4563 51.6855 55.4868C50.0378 56.4352 48.5805 57.6811 47.3878 59.1613C46.9137 59.7508 46.4852 60.3754 46.1059 61.0298C45.5821 61.9337 45.0862 62.9553 44.317 63.614C44.2375 63.6836 44.1538 63.7483 44.0663 63.8075L38.818 62.566C38.8075 62.5572 38.7966 62.5495 38.786 62.5407L38.5742 62.5007C38.5914 62.4656 38.61 62.4296 38.6272 62.3944C38.6371 62.374 38.6482 62.3539 38.6581 62.3335C38.665 62.32 38.6721 62.3064 38.6776 62.2938C38.6799 62.2894 38.6822 62.2848 38.6843 62.2815C38.6898 62.2689 38.6962 62.2578 38.7015 62.2464C38.8049 62.0446 38.9099 61.8432 39.0165 61.6421C39.0167 61.6409 39.0167 61.6409 39.0182 61.64C39.8158 60.1001 40.7933 58.6603 41.9302 57.3507C41.9646 57.3121 41.9993 57.2722 42.0361 57.2342C42.5554 56.6583 43.1208 56.1257 43.7269 55.6419C44.0595 55.378 44.4054 55.1311 44.763 54.9022C45.6883 54.3126 46.7006 53.872 47.7628 53.5969C49.8804 53.0486 52.1498 53.1834 54.0178 54.2663C54.0656 54.294 54.1123 54.3215 54.1598 54.3504Z" fill="#F0F0F0"/>
<path id="Vector_38" d="M54.1323 54.4142C51.396 54.3149 48.698 55.08 46.4214 56.6009C45.9255 56.9196 45.4829 57.3145 45.11 57.771C44.7611 58.2274 44.5409 58.7689 44.4721 59.3392C44.3973 59.8697 44.3822 60.421 44.1798 60.924C44.0723 61.18 43.9119 61.4103 43.7091 61.6C43.5064 61.7896 43.2658 61.9343 43.0032 62.0245C42.3547 62.2662 41.658 62.2605 40.9768 62.2314C40.2206 62.1989 39.4356 62.1533 38.7249 62.4622C38.6388 62.4996 38.5857 62.3639 38.6717 62.3265C39.9082 61.789 41.2768 62.287 42.5573 62.004C43.1549 61.8719 43.7162 61.559 43.991 60.9906C44.2313 60.4935 44.2473 59.9251 44.3184 59.3873C44.3773 58.83 44.5719 58.2955 44.885 57.8307C45.2335 57.3567 45.6601 56.9454 46.1466 56.6145C47.2299 55.852 48.4264 55.2646 49.6922 54.8737C51.1345 54.4196 52.6438 54.2155 54.1549 54.2702C54.2484 54.2736 54.2252 54.4176 54.1323 54.4142Z" fill="white"/>
<path id="Vector_39" d="M47.1256 56.068C46.9222 55.6515 46.8736 55.1763 46.9883 54.7273C47.103 54.2782 47.3737 53.8845 47.7519 53.6165C47.8286 53.5626 47.9161 53.6792 47.8393 53.7333C47.4866 53.9822 47.2345 54.3489 47.1285 54.7673C47.0226 55.1857 47.0697 55.6281 47.2614 56.0149C47.3029 56.0989 47.167 56.1516 47.1256 56.068Z" fill="white"/>
<path id="Vector_40" d="M44.4745 59.0653C45.368 59.3814 46.3477 59.3492 47.2185 58.9752C47.3047 58.9381 47.3578 59.0739 47.2717 59.111C46.3648 59.4984 45.3451 59.5298 44.4162 59.1988C44.3276 59.1672 44.3865 59.0338 44.4745 59.0653Z" fill="white"/>
<path id="Vector_41" d="M51.1145 54.6118C51.1596 54.7894 51.2481 54.9529 51.372 55.0878C51.496 55.2227 51.6516 55.3247 51.8247 55.3847C51.9136 55.4151 51.8546 55.5485 51.7663 55.5182C51.5753 55.4511 51.4037 55.3383 51.2664 55.1895C51.1291 55.0408 51.0303 54.8607 50.9787 54.665C50.9723 54.647 50.973 54.6272 50.9807 54.6096C50.9883 54.5921 51.0024 54.5781 51.02 54.5706C51.038 54.5636 51.058 54.564 51.0757 54.5718C51.0934 54.5795 51.1073 54.5939 51.1145 54.6118Z" fill="white"/>
<path id="Vector_42" d="M104.384 75.7793C103.796 73.5799 104.257 70.9908 105.979 69.5C106.065 71.9744 107.023 74.3386 108.685 76.1743C109.329 76.8799 110.118 77.5978 110.168 78.5513C110.171 79.1522 109.943 79.7313 109.532 80.169C109.122 80.6004 108.659 80.9775 108.153 81.2912L108.083 81.4217C106.446 79.8387 104.973 77.9787 104.384 75.7793Z" fill="#F0F0F0"/>
<path id="Vector_43" d="M106.014 69.5315C105.38 71.3059 105.32 73.2352 105.844 75.0453C105.95 75.437 106.117 75.8096 106.339 76.1492C106.566 76.4732 106.876 76.7304 107.236 76.8942C107.582 77.0279 107.911 77.2031 108.215 77.416C108.361 77.5398 108.479 77.693 108.561 77.8655C108.643 78.038 108.688 78.2259 108.692 78.417C108.69 78.889 108.593 79.3557 108.406 79.7894C108.228 80.2788 108.034 80.7842 108.089 81.3148C108.096 81.3791 107.995 81.3856 107.989 81.3214C107.894 80.3983 108.505 79.6041 108.586 78.7052C108.617 78.498 108.6 78.2865 108.536 78.087C108.473 77.8874 108.364 77.705 108.22 77.5537C107.943 77.2925 107.574 77.1637 107.235 77.0051C106.882 76.8504 106.572 76.6115 106.332 76.3093C106.093 75.982 105.912 75.6165 105.796 75.2285C105.521 74.359 105.385 73.4518 105.392 72.54C105.394 71.4993 105.574 70.4666 105.925 69.4867C105.946 69.4261 106.036 69.4713 106.014 69.5315Z" fill="white"/>
<path id="Vector_44" d="M105.641 74.4724C105.325 74.5191 105.003 74.4521 104.732 74.2833C104.461 74.1146 104.259 73.8551 104.162 73.5511C104.143 73.4896 104.238 73.4565 104.257 73.5181C104.347 73.8013 104.535 74.043 104.788 74.1997C105.04 74.3563 105.341 74.4175 105.634 74.3723C105.698 74.3625 105.704 74.4627 105.641 74.4724Z" fill="white"/>
<path id="Vector_45" d="M107.056 76.8356C107.45 76.3153 107.633 75.6659 107.569 75.0168C107.562 74.9525 107.662 74.9459 107.669 75.0101C107.734 75.6857 107.542 76.3612 107.132 76.9017C107.093 76.9532 107.017 76.8868 107.056 76.8356Z" fill="white"/>
<path id="Vector_46" d="M105.516 71.5524C105.642 71.5598 105.767 71.5358 105.882 71.4825C105.996 71.4293 106.095 71.3485 106.171 71.2474C106.209 71.1954 106.285 71.2619 106.246 71.3135C106.162 71.4248 106.053 71.5139 105.926 71.573C105.8 71.6321 105.661 71.6594 105.522 71.6525C105.509 71.653 105.496 71.6484 105.486 71.6397C105.476 71.631 105.47 71.6189 105.469 71.6058C105.468 71.5925 105.472 71.5795 105.481 71.5695C105.49 71.5595 105.502 71.5533 105.516 71.5524Z" fill="white"/>
<path id="Vector_47" d="M113.584 70.7726C113.56 70.8058 113.537 70.8389 113.514 70.8728C113.206 71.3198 112.934 71.7912 112.702 72.2822C112.683 72.3199 112.665 72.3583 112.648 72.3965C112.101 73.5854 111.78 74.8654 111.7 76.1716C111.669 76.6913 111.678 77.2127 111.726 77.7312C111.792 78.4473 111.921 79.2184 111.752 79.8946C111.735 79.9653 111.714 80.035 111.688 80.1031L108.247 81.4975C108.238 81.4968 108.229 81.4968 108.219 81.4961L108.084 81.558C108.08 81.5314 108.076 81.5038 108.072 81.4772C108.069 81.4618 108.067 81.4461 108.065 81.4307C108.063 81.4203 108.062 81.41 108.06 81.4007C108.059 81.3972 108.059 81.3938 108.059 81.3911C108.057 81.3818 108.056 81.373 108.054 81.3645C108.032 81.2101 108.011 81.0551 107.99 80.8998C107.99 80.899 107.99 80.899 107.991 80.8979C107.824 79.7158 107.799 78.5181 107.915 77.3299C107.919 77.2945 107.922 77.2583 107.928 77.2223C107.99 76.6921 108.095 76.1679 108.242 75.6548C108.324 75.3741 108.419 75.0977 108.529 74.8267C108.813 74.127 109.206 73.4764 109.692 72.8987C110.662 71.7471 111.99 70.9185 113.47 70.782C113.508 70.7785 113.545 70.7753 113.584 70.7726Z" fill="#F0F0F0"/>
<path id="Vector_48" d="M113.593 70.8194C112.018 71.854 110.808 73.3586 110.137 75.1195C109.986 75.496 109.895 75.894 109.867 76.2988C109.853 76.694 109.946 77.0858 110.134 77.4333C110.33 77.7485 110.488 78.0863 110.602 78.4393C110.644 78.6258 110.646 78.8191 110.607 79.0063C110.569 79.1936 110.492 79.3706 110.38 79.5259C110.094 79.9013 109.735 80.2154 109.325 80.4495C108.888 80.7326 108.429 81.0198 108.153 81.4764C108.12 81.5317 108.036 81.4766 108.069 81.4214C108.549 80.627 109.516 80.3611 110.122 79.692C110.271 79.5451 110.385 79.366 110.455 79.1684C110.524 78.9708 110.547 78.7599 110.523 78.5519C110.459 78.1771 110.242 77.8517 110.067 77.5215C109.878 77.1852 109.774 76.8077 109.765 76.422C109.771 76.0171 109.847 75.6162 109.988 75.2366C110.292 74.377 110.729 73.5704 111.284 72.8466C111.913 72.017 112.679 71.301 113.549 70.7296C113.602 70.6943 113.647 70.7843 113.593 70.8194Z" fill="white"/>
<path id="Vector_49" d="M110.32 74.5397C110.039 74.387 109.823 74.1397 109.708 73.8419C109.593 73.5441 109.588 73.2153 109.694 72.9141C109.715 72.8533 109.811 72.8839 109.789 72.9448C109.691 73.2251 109.695 73.5314 109.803 73.8085C109.91 74.0855 110.113 74.3151 110.375 74.4558C110.431 74.4864 110.376 74.5702 110.32 74.5397Z" fill="white"/>
<path id="Vector_50" d="M110.027 77.2785C110.654 77.0999 111.191 76.6915 111.531 76.1346C111.565 76.0794 111.648 76.1344 111.615 76.1896C111.26 76.7684 110.7 77.1924 110.047 77.3767C109.985 77.3943 109.965 77.2959 110.027 77.2785Z" fill="white"/>
<path id="Vector_51" d="M111.978 72.1329C112.074 72.2146 112.189 72.2711 112.313 72.2974C112.436 72.3238 112.564 72.319 112.685 72.2837C112.747 72.2654 112.767 72.3637 112.705 72.3819C112.572 72.4204 112.43 72.4254 112.294 72.3966C112.157 72.3678 112.03 72.3061 111.923 72.2168C111.912 72.2093 111.905 72.1979 111.902 72.185C111.9 72.1721 111.902 72.1586 111.909 72.1474C111.916 72.1363 111.927 72.1286 111.94 72.1258C111.953 72.1231 111.967 72.1257 111.978 72.1329Z" fill="white"/>
</g>
<defs>
<clipPath id="clip0_26_547">
<rect width="122" height="131" fill="white"/>
</clipPath>
</defs>
</svg>
